<svg width="1920" height="72" viewBox="0 0 1920 72" fill="none" xmlns="http://www.w3.org/2000/svg">
<g clip-path="url(#clip0_889_10862)">
<path d="M1920 -871H0V141.5H1920V-871Z" fill="url(#paint0_linear_889_10862)"/>
<path d="M1430.16 11.6562L1460.62 14L1491.56 15.875L1518.75 18.6875L1526.25 30.4062L1502.81 31.8125L1472.81 28.5312L1441.88 25.7188L1411.41 21.9688L1380 18.6875L1349.06 15.875L1317.66 13.5312L1286.25 11.6562L1255.31 11.1875L1223.91 11.6562L1192.97 14L1162.03 15.4062L1130.62 19.625L1103.91 26.1875L1100.16 43.5312L1124.06 38.8438L1154.53 31.3438L1184.53 25.7188L1215 18.2188L1245.47 13.5312L1275.94 9.78125L1306.88 7.90625L1337.34 7.4375L1368.28 7.90625L1399.22 9.3125L1430.16 11.6562Z" fill="#8FADBF" fill-opacity="0.06125"/>
<path d="M1158.75 5.5625L1182.19 7.4375L1205.16 8.375L1225.78 10.7188L1228.12 19.625L1209.38 21.0312L1185.94 18.2188L1162.5 15.875L1138.59 13.5312L1115.16 10.7188L1091.25 8.84375L1067.34 6.96875L1043.91 5.5625L1020 5.09375L996.094 5.5625L972.188 7.4375L948.281 8.375L924.375 11.6562L904.219 16.3438L905.625 29.9375L925.312 26.1875L948.75 20.5625L971.719 16.3438L995.156 10.7188L1018.12 6.96875L1041.56 4.15625L1065 2.75L1088.44 2.28125L1111.88 2.75L1135.31 3.6875L1158.75 5.5625Z" fill="#8FADBF" fill-opacity="0.06125"/>
<path d="M1909.22 -13.1875L1920 -9.90625V-7.5625V-3.8125V12.5938V14.4688V9.78125V5.5625L1900.78 0.40625L1858.12 -3.8125L1815 -8.03125L1771.88 -11.7812L1728.28 -14.125L1685.16 -15.0625L1642.5 -14.125L1599.84 -10.8438L1557.66 -8.96875L1515.94 -2.875L1476.09 6.03125L1458.28 30.875L1486.88 24.3125L1527.66 14.4688L1568.91 6.03125L1610.16 -3.8125L1651.88 -10.375L1694.53 -15.5312L1737.19 -18.3438L1780.31 -18.8125L1823.44 -17.875L1866.56 -16L1909.22 -13.1875Z" fill="#8FADBF" fill-opacity="0.06125"/>
<path d="M542.812 8.84375L552.188 9.78125L561.094 10.25L568.594 10.7188L567.188 14.4688L558.75 14.9375L549.375 14L539.531 13.0625L530.156 12.125L520.781 11.1875L511.406 10.25L502.031 9.3125L492.656 8.84375H483.281H473.906L464.062 9.78125H454.688L444.844 11.1875L437.344 13.0625L441.562 18.6875L450.469 17.2812L460.312 14.9375L469.688 13.0625L479.062 10.7188L487.969 9.3125L497.344 8.375L506.25 7.90625L515.156 7.4375L524.531 7.90625L533.438 8.375L542.812 8.84375Z" fill="#8FADBF" fill-opacity="0.06125"/>
<path d="M344.531 -18.3438L362.812 -16.9375L381.094 -16L395.625 -14.125L390.938 -7.09375L373.594 -6.625L354.375 -8.5L335.156 -10.375L315.938 -12.25L296.719 -14.5938L277.5 -16L258.75 -17.875L239.531 -18.8125L220.312 -19.2812L201.094 -18.8125L181.406 -17.4062L161.719 -16.4688L141.562 -14.125L127.5 -10.375L140.156 0.875L160.312 -1.9375L179.531 -6.15625L198.281 -9.90625L217.031 -14.125L235.312 -16.9375L253.594 -19.2812L271.875 -20.6875H289.688L307.969 -20.2188L326.25 -19.75L344.531 -18.3438Z" fill="#8FADBF" fill-opacity="0.06125"/>
<path d="M359.531 68.375L382.5 70.25L405.469 71.6562L423.281 74L417.656 83.375L396.562 84.7812L372.188 82.4375L348.281 80.0938L323.906 77.2812L300 74.9375L276.562 73.0625L252.656 71.1875L228.75 69.7812L205.312 69.3125L180.938 69.7812L156.562 71.6562L131.719 72.5938L105.938 76.3438L89.0625 80.5625L105.469 92.75L130.781 88.5312L154.688 83.375L178.125 78.6875L201.094 73.0625L224.062 69.7812L246.562 66.9688L269.062 65.5625L291.562 65.0938L314.062 65.5625L336.562 66.5L359.531 68.375Z" fill="#8FADBF" fill-opacity="0.06125"/>
<path d="M1799.53 14.9375L1843.59 18.2188L1887.19 20.5625L1920 24.7812V42.125L1916.72 44.4688L1873.59 39.7812L1830.47 35.0938L1786.41 30.4062L1741.88 25.7188L1696.88 21.5L1651.88 17.75L1606.88 14.9375L1561.88 14L1517.34 15.4062L1472.81 18.6875L1428.28 20.5625L1384.69 27.125L1344.38 36.0312L1330.31 60.875L1361.72 53.375L1404.38 43.5312L1447.03 34.625L1489.69 24.3125L1533.28 17.75L1577.34 12.5938L1621.41 9.3125L1665.94 8.84375L1710.94 9.78125L1755.47 11.6562L1799.53 14.9375Z" fill="#8FADBF" fill-opacity="0.06125"/>
<path d="M158.906 11.6562L193.125 14.4688L226.875 16.3438L252.656 19.625L242.344 32.75L209.062 34.625L172.5 30.875L136.406 27.5938L100.312 23.375L64.2188 19.625L28.5938 16.8125L0 13.5312V11.6562V11.1875V11.6562V14.4688V15.875V21.0312V28.0625V47.2812V42.125V34.1562V27.125V19.1562V14V9.78125L26.25 7.4375L59.0625 6.96875L92.3438 7.4375L125.625 9.3125L158.906 11.6562Z" fill="#8FADBF" fill-opacity="0.06125"/>
<path d="M627.656 63.2188L633.75 63.6875L640.312 64.1562L645.469 65.0938L644.531 67.4375L638.906 67.9062L632.344 67.4375L625.781 66.5L619.219 66.0312L612.656 65.0938L606.094 64.625L599.531 64.1562L592.969 63.6875H586.406H579.844L572.812 64.1562L566.25 64.625L559.688 65.5625L554.531 66.9688L556.406 70.25L562.969 69.3125L569.531 67.4375L576.094 66.5L582.656 64.625L588.75 63.6875L595.312 62.75H601.875L607.969 62.2812L614.531 62.75H621.094L627.656 63.2188Z" fill="#8FADBF" fill-opacity="0.06125"/>
<path d="M494.062 47.75L512.344 49.1562L530.625 50.0938L545.156 51.9688L541.875 59.4688L525 60.4062L505.781 58.5312L487.031 56.6562L467.812 54.7812L449.062 52.4375L430.312 51.0312L411.562 49.625L392.812 48.2188H373.594L354.844 48.6875L335.625 50.0938L315.938 50.5625L296.25 53.375L281.719 57.125L292.5 66.9688L311.25 64.1562L330 59.4688L348.75 56.1875L367.5 51.5L385.781 48.6875L403.594 46.8125L421.875 45.4062L439.688 44.9375L457.5 45.4062L475.781 46.3438L494.062 47.75Z" fill="#8FADBF" fill-opacity="0.06125"/>
<path d="M1507.5 63.6875L1516.88 64.625L1525.78 65.0938L1533.75 66.0312L1536.09 69.3125L1529.06 69.7812L1520.62 68.8438L1511.72 68.375L1502.81 66.9688L1493.91 66.0312L1485 65.5625L1476.09 64.625L1466.72 64.1562H1457.81H1448.91L1440 65.0938L1431.09 65.5625L1422.66 66.5L1414.69 68.375L1410.94 73.0625L1417.5 71.6562L1426.41 69.7812L1435.31 67.9062L1444.22 65.5625L1453.12 64.1562L1462.03 63.2188L1471.41 62.75L1480.31 62.2812L1489.69 62.75L1498.59 63.2188L1507.5 63.6875Z" fill="#8FADBF" fill-opacity="0.06125"/>
<path d="M1091.72 -21.625L1132.03 -18.3438L1172.34 -16.4688L1207.5 -12.7188L1211.72 2.75L1178.91 4.625L1137.66 -0.0625L1095.94 -4.28125L1054.69 -8.96875L1012.5 -13.1875L970.781 -16.9375L929.062 -20.6875L886.875 -23.0312L844.688 -23.9688L802.969 -23.0312L760.312 -19.75L717.656 -17.875L674.062 -12.25L640.312 -3.8125L651.094 20.5625L688.594 14.4688L729.375 5.09375L769.688 -2.875L810 -12.7188L849.844 -18.8125L890.156 -23.9688L930 -26.3125L970.312 -27.25L1010.62 -26.3125L1050.94 -24.4375L1091.72 -21.625Z" fill="#8FADBF" fill-opacity="0.06125"/>
<path d="M831.562 12.125L864.844 14.4688L898.594 16.3438L926.25 19.625L925.781 32.75L897.188 34.625L862.5 30.875L827.812 27.5938L793.594 23.375L758.906 20.0938L724.219 16.8125L689.531 14L654.844 12.125L620.156 11.1875L585.469 12.125L549.844 14.9375L514.219 16.3438L478.125 21.0312L450.938 28.0625L465.469 47.2812L498.281 41.6562L532.031 34.1562L565.781 27.125L599.531 19.1562L632.812 14L665.625 10.25L698.906 7.90625L731.719 7.4375L765 7.90625L798.281 9.78125L831.562 12.125Z" fill="#8FADBF" fill-opacity="0.06125"/>
<path d="M1279.22 28.5312L1312.03 30.875L1344.84 32.75L1374.38 35.5625L1380 49.1562L1354.22 50.5625L1320.94 47.2812L1287.66 44L1254.38 40.25L1220.62 36.5L1186.88 33.6875L1153.12 30.875L1118.91 29L1085.16 28.0625L1051.41 29L1017.66 31.3438L983.438 32.75L949.219 37.9062L920.625 44.4688L922.031 62.75L949.688 57.5938L982.5 49.625L1015.31 43.0625L1048.12 35.5625L1080.47 30.4062L1113.75 26.1875L1146.56 24.3125L1179.38 23.8438L1212.66 24.3125L1245.94 25.7188L1279.22 28.5312Z" fill="#8FADBF" fill-opacity="0.06125"/>
<path d="M985.781 -23.9688L1012.5 -22.0938L1039.22 -20.2188L1062.19 -17.875L1063.59 -8.03125L1041.09 -6.625L1013.44 -9.90625L986.25 -12.25L958.594 -15.5312L930.938 -18.3438L903.281 -21.1562L875.625 -23.0312L847.969 -24.9062L820.312 -25.375L792.656 -24.9062L765 -22.5625L736.875 -21.625L708.281 -17.875L686.25 -12.25L692.344 4.15625L716.719 -0.0625L743.906 -6.15625L771.094 -11.7812L797.812 -17.875L824.531 -22.0938L851.25 -25.375L877.969 -27.25L904.688 -27.7188L931.875 -27.25L958.594 -25.8438L985.781 -23.9688Z" fill="#8FADBF" fill-opacity="0.06125"/>
<path d="M744.844 39.3125L776.25 41.6562L807.656 43.5312L832.969 46.3438L831.562 59.4688L803.906 60.875L772.031 57.5938L739.688 54.3125L707.344 51.0312L675 47.75L642.656 44.4688L610.312 42.125L577.969 40.25L545.625 39.7812L513.281 40.25L480 43.0625L447.188 44.4688L412.969 48.6875L388.125 55.25L403.125 72.125L434.062 66.9688L465.938 59.4688L497.344 53.375L528.75 45.875L559.688 41.1875L590.625 37.4375L621.562 35.5625L652.031 35.0938L682.969 35.5625L713.906 36.9688L744.844 39.3125Z" fill="#8FADBF" fill-opacity="0.06125"/>
<path d="M1265.62 65.5625L1315.78 69.3125L1365.47 72.125L1410 76.8125L1419.84 97.9062L1380 100.719L1329.84 96.0312L1278.75 90.875L1227.19 85.25L1175.62 79.625L1123.59 74.9375L1071.56 70.7188L1019.53 67.9062L967.5 66.9688L915 68.375L862.5 72.5938L809.531 74.4688L756.094 82.4375L713.438 92.2812L723.75 118.062L768.75 109.156L818.438 97.4375L868.125 87.5938L917.812 75.875L967.031 67.9062L1016.25 62.2812L1065.94 59L1115.62 58.0625L1165.78 59.4688L1215.94 61.8125L1265.62 65.5625Z" fill="#8FADBF" fill-opacity="0.06125"/>
<path d="M221.719 -24.4375L261.094 -21.625L300.938 -19.2812L330.938 -15.5312L320.156 -0.53125L282.188 0.875L239.531 -3.34375L197.344 -7.5625L155.625 -12.25L113.906 -16.4688L72.1875 -20.2188L30.4688 -23.5L0 -25.8438V-26.7812V-25.8438V-22.5625V-21.1562V-15.5312V-7.09375V16.8125V10.7188V1.34375V-6.15625V-15.5312V-21.625L29.5312 -26.7812L67.9688 -29.125L105.938 -30.0625L144.375 -29.125L182.812 -27.25L221.719 -24.4375Z" fill="#8FADBF" fill-opacity="0.06125"/>
<path d="M983.906 -31.4688L1019.53 -29.125L1055.62 -26.7812L1086.09 -23.9688L1087.97 -10.375L1057.97 -8.96875L1021.41 -12.7188L984.375 -16.4688L947.812 -20.6875L910.781 -24.4375L873.75 -28.1875L836.719 -31L799.688 -32.875L762.188 -33.8125L725.156 -32.875L687.656 -30.5312L649.688 -28.6562L611.25 -23.9688L581.719 -16.4688L592.969 5.5625L626.719 0.40625L662.812 -8.03125L698.906 -15.0625L734.531 -23.5L770.156 -29.125L805.312 -33.3438L840.938 -35.6875L876.562 -36.625L912.188 -35.6875L947.812 -34.2812L983.906 -31.4688Z" fill="#8FADBF" fill-opacity="0.06125"/>
<path d="M1745.16 52.4375L1767.66 53.8438L1789.69 55.25L1809.84 57.5938L1818.28 66.5L1802.34 67.4375L1781.25 65.0938L1759.69 63.2188L1737.66 60.4062L1715.62 58.5312L1693.59 56.1875L1671.56 54.3125L1649.06 53.375L1627.03 52.9062L1605 53.375L1583.44 55.25L1561.41 56.1875L1540.31 59.4688L1520.16 63.6875L1509.84 75.4062L1524.38 71.6562L1545.94 66.5L1567.5 62.2812L1589.06 57.125L1611.09 53.375L1633.12 51.0312L1655.62 49.625L1678.12 49.1562L1700.62 49.625L1723.12 50.5625L1745.16 52.4375Z" fill="#8FADBF" fill-opacity="0.06125"/>
<path d="M1333.12 14.4688L1371.09 17.2812L1409.06 19.1562L1442.81 22.9062L1450.78 37.9062L1421.25 39.3125L1383.28 35.5625L1344.84 31.8125L1306.41 27.125L1267.97 23.375L1229.06 19.625L1190.16 16.3438L1150.78 14.4688L1111.88 13.5312L1072.97 14.4688L1033.59 17.2812L994.688 19.1562L955.312 24.7812L922.5 32.2812L923.438 53.8438L955.312 47.75L992.812 38.8438L1030.78 31.3438L1067.81 22.4375L1105.78 16.3438L1143.28 12.125L1181.25 9.3125L1219.22 8.84375L1257.19 9.78125L1295.16 11.6562L1333.12 14.4688Z" fill="#8FADBF" fill-opacity="0.06125"/>
<path d="M754.688 21.5L795.938 24.3125L837.188 26.6562L871.406 30.4062L869.531 47.2812L833.438 49.1562L790.312 44.9375L747.656 40.7188L704.531 36.0312L661.406 31.3438L618.281 27.5938L575.156 23.8438L532.031 21.5L488.906 20.5625L445.312 21.5L400.781 25.25L356.25 26.6562L310.312 32.75L277.969 41.1875L301.406 64.625L343.594 57.5938L386.25 48.2188L427.5 39.7812L469.219 29.9375L510 23.8438L550.781 18.6875L591.094 15.875L631.875 15.4062L672.656 16.3438L713.438 18.2188L754.688 21.5Z" fill="#8FADBF" fill-opacity="0.06125"/>
<path d="M294.844 -17.875L324.375 -15.5312L353.906 -14.125L376.875 -11.3125L369.375 -0.0625L341.25 1.34375L309.844 -1.9375L278.438 -5.21875L247.031 -8.5L215.625 -11.7812L184.688 -14.5938L153.75 -16.9375L122.812 -18.8125L91.875 -19.2812L60.4688 -18.8125L28.125 -16.4688L0 -15.0625V-10.8438V-4.75V13.0625V8.84375L30 1.8125L60.4688 -4.28125L90.4688 -11.3125L120 -16L149.062 -19.2812L178.125 -21.625L207.188 -22.0938L236.25 -21.625L265.312 -20.2188L294.844 -17.875Z" fill="#8FADBF" fill-opacity="0.06125"/>
<path d="M448.125 43.5312L494.531 47.2812L540.938 49.625L577.969 54.3125L570 73.5312L526.875 75.875L477.656 71.1875L427.969 66.5L378.75 60.875L329.531 56.1875L280.312 51.5L231.562 47.75L182.344 44.9375L133.125 44L82.9688 45.4062L31.875 49.1562L0 51.0312V58.0625V67.4375V92.75V84.7812L34.6875 73.5312L82.0312 64.625L128.906 53.375L174.844 46.3438L220.312 40.7188L265.781 37.4375L310.781 36.9688L356.25 37.9062L401.719 40.25L448.125 43.5312Z" fill="#8FADBF" fill-opacity="0.06125"/>
<path d="M540.469 -3.8125L551.719 -2.875L562.969 -2.40625L571.406 -1.46875L569.531 2.75L559.688 3.21875L547.969 2.28125L536.719 0.875L525.469 -0.0625L513.75 -1.46875L502.5 -2.40625L491.25 -3.34375L480 -3.8125L468.75 -4.28125L457.031 -3.8125L445.781 -2.875L434.062 -2.40625L421.875 -1L413.438 1.34375L418.594 7.90625L429.375 6.03125L441.094 3.6875L452.344 1.34375L463.594 -1.46875L474.375 -2.875L485.625 -4.28125L496.406 -5.21875H507.656H518.438L529.688 -4.75L540.469 -3.8125Z" fill="#8FADBF" fill-opacity="0.06125"/>
<path d="M1046.25 55.7188L1068.28 57.125L1090.31 58.5312L1109.06 60.875L1110.47 69.7812L1092.19 70.7188L1070.16 68.375L1047.66 66.5L1025.62 63.6875L1003.12 61.8125L981.094 59.4688L958.594 57.5938L936.094 56.6562L913.594 56.1875L891.562 56.6562L869.062 58.5312L846.094 59.4688L823.594 62.75L805.312 66.9688L808.125 78.6875L827.344 74.9375L849.375 69.7812L870.938 65.5625L892.969 60.4062L915 56.6562L936.562 54.3125L958.594 52.9062L980.625 52.4375L1002.19 52.9062L1024.22 53.8438L1046.25 55.7188Z" fill="#8FADBF" fill-opacity="0.06125"/>
<path d="M1870.31 -17.4062L1908.28 -14.5938L1920 -12.7188V-9.4375V5.09375V6.5V2.75L1898.91 -1.46875L1861.41 -5.6875L1823.44 -9.90625L1785 -13.1875L1746.56 -16.4688L1708.12 -18.8125L1669.69 -19.75L1631.25 -18.8125L1593.75 -15.5312L1555.78 -14.125L1519.22 -8.96875L1483.59 -1L1467.19 21.5L1492.97 15.875L1529.06 6.96875L1566.09 -0.53125L1603.12 -9.4375L1640.62 -15.0625L1678.59 -19.75L1716.56 -22.0938L1755 -22.5625L1793.91 -22.0938L1832.34 -20.2188L1870.31 -17.4062Z" fill="#8FADBF" fill-opacity="0.06125"/>
<path d="M660.938 32.2812L679.219 33.2188L697.031 34.625L712.031 36.0312L709.688 43.5312L693.75 44L675.469 42.5938L656.719 40.7188L637.969 38.375L619.688 36.5L600.938 35.0938L582.656 33.2188L564.375 32.2812L545.625 31.8125L526.875 32.2812L508.125 33.6875L489.375 34.625L470.156 37.4375L455.625 40.7188L463.125 51.0312L480.938 48.2188L499.688 44L517.969 40.25L535.781 36.0312L554.062 33.2188L571.875 30.875L589.688 29.9375L607.5 29.4688L625.312 29.9375L643.125 30.875L660.938 32.2812Z" fill="#8FADBF" fill-opacity="0.06125"/>
<path d="M776.719 47.2812L793.125 48.2188L809.531 49.1562L822.656 51.0312L821.719 57.5938L807.656 58.5312L790.781 56.6562L774.375 54.7812L757.5 53.375L740.625 51.5L724.219 50.0938L707.344 48.6875L690.938 47.75L674.062 47.2812L657.188 47.75L640.312 49.1562L623.438 49.625L606.094 51.9688L592.969 55.25L598.125 64.1562L613.594 61.8125L630 57.5938L646.406 54.3125L662.812 50.5625L679.219 48.2188L695.625 45.875L711.562 44.9375H727.969H743.906L760.312 45.875L776.719 47.2812Z" fill="#8FADBF" fill-opacity="0.06125"/>
<path d="M622.5 22.4375L666.562 25.7188L711.094 28.0625L747.188 32.2812L743.438 50.5625L703.125 52.4375L656.719 47.75L609.844 43.5312L562.969 38.375L516.562 33.2188L469.688 29L423.281 25.7188L376.406 22.9062L329.531 21.9688L282.188 22.9062L233.906 26.6562L185.625 28.5312L135 35.0938L100.781 44.4688L132.656 68.8438L180.469 61.8125L226.406 51.5L271.406 42.5938L316.406 31.8125L360 24.7812L403.594 19.625L447.188 16.8125L490.781 16.3438L534.375 17.2812L578.438 19.1562L622.5 22.4375Z" fill="#8FADBF" fill-opacity="0.06125"/>
<path d="M1712.81 61.8125L1736.72 63.2188L1760.62 64.625L1783.12 66.9688L1791.56 76.8125L1774.22 78.2188L1751.25 75.875L1727.34 73.5312L1703.91 70.7188L1680 68.375L1656.09 66.0312L1631.72 64.1562L1607.81 62.75L1583.44 62.2812L1559.53 62.75L1536.09 64.625L1512.19 65.5625L1489.22 69.3125L1467.19 74L1456.88 86.6562L1473.28 82.4375L1496.72 76.8125L1520.16 72.125L1543.59 66.5L1567.5 62.75L1591.41 59.9375L1615.78 58.5312L1640.16 58.0625L1664.53 58.5312L1688.44 59.9375L1712.81 61.8125Z" fill="#8FADBF" fill-opacity="0.06125"/>
<path d="M1920 39.7812V41.6562V43.5312V46.3438V58.0625V59.4688V56.6562V53.375V50.0938L1916.25 47.2812L1886.72 44.4688L1857.19 42.125L1827.66 40.25L1798.59 39.7812L1769.06 40.7188L1740.47 43.0625L1711.88 44L1684.22 48.2188L1656.56 54.3125L1639.22 70.25L1657.97 65.5625L1685.62 58.5312L1714.22 52.9062L1742.81 45.875L1771.88 41.1875L1801.41 37.9062L1830.94 36.0312L1860.94 35.5625L1890.94 36.0312L1920 37.4375V39.7812Z" fill="#8FADBF" fill-opacity="0.06125"/>
<path d="M772.969 -8.96875L788.438 -7.5625L803.906 -7.09375L816.562 -5.6875L815.625 0.40625L802.031 0.875L786.562 -0.53125L770.625 -2.40625L754.688 -3.8125L739.219 -5.6875L723.281 -7.09375L707.344 -8.5L691.875 -9.4375H675.938H660L644.062 -8.03125L628.125 -7.5625L611.719 -5.21875L599.531 -1.9375L604.219 6.96875L618.75 4.625L634.219 1.34375L649.688 -1.9375L665.625 -5.6875L680.625 -8.03125L696.094 -9.90625L711.562 -10.8438H726.562H742.031L757.5 -9.90625L772.969 -8.96875Z" fill="#8FADBF" fill-opacity="0.06125"/>
<path d="M1135.31 -5.6875L1154.53 -4.28125L1174.22 -3.34375L1191.09 -1.46875L1192.97 6.03125L1177.03 6.5L1157.81 4.625L1138.12 2.75L1118.44 0.40625L1098.75 -1.46875L1079.06 -3.34375L1059.38 -5.21875L1039.69 -6.15625L1020 -6.625L1000.31 -6.15625L980.625 -4.75L960.938 -3.8125L941.25 -1L924.375 2.75L925.312 14.4688L941.719 11.1875L960.938 6.96875L980.156 3.21875L999.375 -1.46875L1018.59 -4.75L1038.28 -7.09375L1057.5 -8.03125L1077.19 -8.5L1096.41 -8.03125L1116.09 -7.09375L1135.31 -5.6875Z" fill="#8FADBF" fill-opacity="0.06125"/>
<path d="M1647.19 67.9062L1681.88 70.7188L1716.56 72.5938L1748.91 75.875L1760.62 90.4062L1735.31 92.2812L1701.56 89L1666.88 85.25L1632.19 81.5L1597.5 77.75L1561.88 74.4688L1526.72 71.6562L1491.09 69.7812L1455.94 69.3125L1420.78 70.25L1385.62 73.0625L1350.94 74.4688L1316.25 79.625L1284.84 86.6562L1275.47 104.469L1300.78 98.375L1335 90.4062L1368.75 83.375L1402.97 74.9375L1437.19 69.7812L1471.88 65.5625L1507.03 63.6875L1542.19 63.2188L1577.34 63.6875L1612.5 65.5625L1647.19 67.9062Z" fill="#8FADBF" fill-opacity="0.06125"/>
<path d="M801.094 1.8125L815.156 3.21875L828.75 3.6875L840 5.09375L839.062 10.25L827.344 10.7188L813.281 9.3125L799.688 7.90625L785.625 6.5L771.562 5.09375L757.5 3.6875L743.906 2.75L729.844 1.8125H715.781H701.719L687.656 3.21875L673.594 3.6875L659.531 5.5625L648.281 8.375L652.031 16.3438L664.688 14L678.281 11.1875L692.344 8.375L705.938 5.09375L719.531 2.75L733.125 1.34375L746.719 0.40625L760.312 -0.0625L773.906 0.40625L787.5 0.875L801.094 1.8125Z" fill="#8FADBF" fill-opacity="0.06125"/>
<path d="M1440 60.4062L1478.91 63.2188L1517.81 65.5625L1552.5 69.3125L1562.81 85.25L1533.28 87.5938L1494.38 83.375L1455.47 79.625L1416.09 75.4062L1376.25 71.1875L1336.41 67.4375L1296.56 64.1562L1256.72 62.2812L1216.88 61.3438L1176.56 62.2812L1136.72 65.5625L1096.88 66.9688L1057.03 73.0625L1022.81 80.5625L1020.47 101.188L1052.34 94.625L1090.78 85.25L1128.75 77.75L1167.19 68.375L1205.62 62.2812L1244.53 57.5938L1283.44 55.25L1322.34 54.7812L1361.72 55.7188L1400.62 57.5938L1440 60.4062Z" fill="#8FADBF" fill-opacity="0.06125"/>
<path d="M988.125 45.875L1042.5 50.0938L1096.41 52.9062L1142.81 58.5312L1147.03 81.0312L1101.56 83.8438L1045.78 78.2188L989.531 72.5938L933.281 66.5L876.562 60.4062L819.844 55.25L762.656 51.0312L705.938 47.75L648.75 46.3438L591.562 47.75L533.438 52.4375L474.844 54.7812L414.375 63.2188L370.312 74L397.031 103.062L450.938 93.6875L505.781 81.0312L560.156 70.25L614.062 57.125L667.031 48.6875L720.469 42.5938L773.438 38.8438L826.875 38.375L880.312 39.3125L934.219 42.125L988.125 45.875Z" fill="#8FADBF" fill-opacity="0.06125"/>
<path d="M1920 26.6562V29.4688V31.8125V36.0312V53.375V55.25V51.0312V46.8125V41.6562L1885.31 36.9688L1842.19 33.2188L1798.12 29.4688L1754.53 27.125L1710.94 26.1875L1667.34 27.125L1624.69 30.4062L1581.56 32.2812L1539.84 38.8438L1499.53 47.2812L1480.31 71.1875L1508.91 64.1562L1550.16 53.8438L1591.88 45.4062L1633.59 35.5625L1675.78 29L1718.91 23.8438L1762.03 21.0312L1806.09 20.5625L1849.69 21.5L1893.28 23.375L1920 26.6562Z" fill="#8FADBF" fill-opacity="0.06125"/>
<path d="M360 -3.34375L365.156 -2.875L370.312 -2.40625L374.062 -1.9375L372.656 -0.0625H367.969L362.812 -0.53125L357.656 -1L352.5 -1.46875L347.344 -2.40625L342.188 -2.875H337.031L331.875 -3.34375H326.719H321.562L316.406 -2.875H310.781L305.625 -1.9375L301.406 -1L304.219 1.8125L309.844 1.34375L315 -0.0625L320.156 -1L325.312 -1.9375L330 -2.875L335.156 -3.34375L340.312 -3.8125H345H350.156H354.844L360 -3.34375Z" fill="#8FADBF" fill-opacity="0.06125"/>
<path d="M747.656 33.2188L798.281 36.9688L848.438 39.7812L890.156 44.4688L888.75 65.0938L844.688 67.9062L791.719 62.75L738.75 57.5938L685.781 51.5L632.812 45.875L579.844 41.1875L526.875 36.9688L473.906 34.1562L420.469 32.75L366.562 34.1562L311.719 38.375L256.875 40.7188L199.219 48.2188L159.844 58.5312L193.594 86.1875L247.031 77.75L299.062 65.5625L349.688 55.7188L400.312 43.5312L450 36.0312L499.219 29.9375L548.906 26.6562L598.125 26.1875L647.812 27.125L697.5 29.4688L747.656 33.2188Z" fill="#8FADBF" fill-opacity="0.06125"/>
<path d="M534.375 1.34375L560.625 3.21875L586.875 4.625L607.5 7.4375L603.75 17.2812L579.844 18.6875L552.188 15.875L525 13.0625L497.812 10.25L470.156 7.4375L442.969 4.625L416.25 2.75L389.062 0.875L361.875 0.40625L334.219 1.34375L306.094 3.21875L278.438 4.15625L249.375 7.90625L228.75 13.5312L245.156 28.5312L272.344 24.7812L299.531 18.6875L326.25 13.5312L352.969 6.96875L378.75 2.75L405 -0.0625L430.312 -1.9375L456.094 -2.40625L482.344 -1.9375L508.125 -0.53125L534.375 1.34375Z" fill="#8FADBF" fill-opacity="0.06125"/>
<path d="M1342.03 46.8125L1376.72 49.625L1411.88 51.5L1442.81 54.7812L1450.31 69.3125L1423.12 71.1875L1387.97 67.4375L1352.81 63.6875L1317.66 59.9375L1282.03 56.1875L1245.94 52.9062L1210.31 50.0938L1174.22 48.2188L1138.59 47.2812L1102.5 48.2188L1066.88 51.0312L1030.78 52.4375L994.688 57.5938L964.688 64.625L964.219 83.375L993.281 77.75L1027.97 69.3125L1062.66 62.2812L1096.88 54.3125L1131.56 48.6875L1166.72 44.4688L1201.41 42.5938L1236.56 42.125L1271.72 42.5938L1306.88 44.4688L1342.03 46.8125Z" fill="#8FADBF" fill-opacity="0.06125"/>
<path d="M1607.81 -15.5312L1644.38 -12.7188L1681.41 -10.8438L1715.16 -7.09375L1727.34 6.96875L1700.16 8.375L1664.06 4.15625L1627.5 0.40625L1590.47 -3.8125L1553.44 -7.5625L1515.94 -11.3125L1477.97 -14.125L1440.47 -16.4688L1402.97 -17.4062L1365.47 -16.4688L1327.97 -13.6562L1290.94 -11.7812L1253.91 -6.625L1220.62 0.875L1212.66 22.4375L1240.31 17.2812L1276.41 8.375L1312.5 1.34375L1348.59 -7.09375L1385.16 -13.1875L1421.72 -17.4062L1458.75 -19.75L1496.25 -20.2188L1533.28 -19.75L1570.78 -18.3438L1607.81 -15.5312Z" fill="#8FADBF" fill-opacity="0.06125"/>
<path d="M427.969 -25.375L464.062 -22.5625L499.688 -20.6875L527.812 -17.4062L521.25 -3.8125L487.969 -2.40625L450 -6.15625L412.5 -9.90625L374.531 -14.125L337.031 -18.3438L300 -21.625L262.5 -24.4375L225 -26.7812L187.5 -27.25L149.531 -26.7812L111.094 -23.9688L72.1875 -22.5625L31.4062 -17.4062L4.21875 -9.90625L33.2812 11.6562L72.6562 6.5L109.688 -1.9375L146.25 -8.96875L182.344 -17.4062L217.969 -23.0312L253.125 -27.25L287.812 -29.5938L322.5 -30.0625L357.656 -29.5938L392.812 -28.1875L427.969 -25.375Z" fill="#8FADBF" fill-opacity="0.06125"/>
<path d="M1437.19 53.8438H1438.12H1438.59H1439.06L1439.53 54.3125H1439.06H1438.12H1437.66L1436.72 53.8438H1436.25H1435.78H1434.84H1434.38H1433.91H1432.97H1432.5H1432.03H1431.09L1430.62 54.3125H1430.16H1430.62H1431.56L1432.03 53.8438H1432.97H1433.44H1433.91H1434.84H1435.31H1436.25H1436.72H1437.19Z" fill="#8FADBF" fill-opacity="0.06125"/>
<path d="M1920 -10.8438V-8.03125V-6.15625V-2.40625V12.5938V14V10.25V6.03125V1.34375V-2.40625V-6.15625L1890.94 -9.4375L1851.56 -11.7812L1812.19 -12.7188L1773.28 -11.7812L1734.84 -8.5L1696.41 -7.09375L1658.91 -1.46875L1621.88 6.5L1600.78 29L1625.62 23.375L1662.66 14L1700.16 6.5L1737.66 -2.40625L1776.09 -8.5L1815.47 -13.1875L1854.84 -15.5312L1894.22 -16.4688L1920 -15.5312V-13.6562V-10.8438Z" fill="#8FADBF" fill-opacity="0.06125"/>
<path d="M931.875 68.8438L949.688 70.25L967.5 71.1875L982.5 73.0625V80.5625L967.5 81.5L949.219 79.625L931.406 77.75L913.125 75.875L894.844 74L877.031 72.5938L858.75 71.1875L840.469 69.7812H822.188L803.906 70.25L785.625 71.6562L767.344 72.125L748.594 74.9375L734.062 78.2188L737.344 87.5938L753.281 84.7812L771.562 80.5625L789.375 76.8125L807.188 72.5938L825 69.7812L842.812 67.9062L860.625 66.5H878.438L896.25 66.9688L914.062 67.4375L931.875 68.8438Z" fill="#8FADBF" fill-opacity="0.06125"/>
<path d="M396.562 -1.46875L421.406 0.40625L446.25 1.8125L465.469 4.15625L460.312 13.5312L436.875 14.9375L411.094 12.125L385.312 9.78125L359.531 6.96875L333.75 4.15625L307.969 1.8125L282.656 -0.0625L256.875 -1.46875L231.562 -2.40625L205.312 -1.46875L179.062 0.40625L152.344 1.34375L124.688 4.625L106.406 9.78125L123.75 24.3125L150.469 20.5625L176.25 14.9375L201.562 9.78125L226.406 4.15625L251.25 -0.0625L275.625 -2.875L299.531 -4.28125L323.906 -4.75L347.812 -4.28125L372.188 -3.34375L396.562 -1.46875Z" fill="#8FADBF" fill-opacity="0.06125"/>
<path d="M1354.69 59L1409.53 63.2188L1464.38 66.5L1514.06 71.6562L1527.19 95.0938L1484.53 97.9062L1429.22 92.2812L1372.97 86.6562L1316.25 80.5625L1259.06 74.4688L1201.88 69.3125L1144.69 64.625L1087.03 61.8125L1029.38 60.4062L971.719 61.8125L914.062 66.5L855.469 68.8438L796.406 77.2812L749.062 88.5312L758.906 117.125L807.656 107.281L862.5 94.1562L916.875 83.375L971.25 70.25L1025.16 61.8125L1079.53 55.25L1134.38 51.9688L1189.22 51.0312L1244.53 52.4375L1299.38 54.7812L1354.69 59Z" fill="#8FADBF" fill-opacity="0.06125"/>
<path d="M810 -20.6875L830.625 -18.8125L851.25 -17.875L868.594 -16L867.656 -8.03125L849.844 -7.5625L828.75 -9.4375L807.188 -11.7812L786.094 -14.125L765 -16.4688L743.906 -18.3438L722.344 -19.75L701.25 -21.1562L680.156 -21.625L658.594 -21.1562L637.5 -19.75L615.938 -18.8125L593.906 -16L577.031 -11.7812L583.594 0.875L603.281 -1.9375L624.375 -7.09375L645 -10.8438L666.094 -16L686.719 -19.2812L706.875 -21.625L727.5 -23.0312L748.125 -23.5L768.75 -23.0312L789.375 -22.0938L810 -20.6875Z" fill="#8FADBF" fill-opacity="0.06125"/>
<path d="M97.5 48.2188L108.281 48.6875L119.062 49.625L127.031 50.5625L123.281 54.7812L112.5 55.7188L101.25 54.3125L89.5312 53.375L78.2812 51.9688L67.0312 51.0312L55.7812 50.0938L44.5312 49.1562L33.2812 48.2188H22.5L10.7812 48.6875L0 49.1562V49.625V51.5V53.375V59.4688V57.5938L0.46875 55.25L11.7188 52.9062L22.5 50.5625L33.75 48.6875L44.0625 47.2812L54.8438 46.8125L65.1562 46.3438L75.9375 46.8125L86.7188 47.2812L97.5 48.2188Z" fill="#8FADBF" fill-opacity="0.06125"/>
<path d="M1059.38 14.9375L1098.28 17.75L1137.19 20.0938L1170.47 23.8438L1174.22 39.3125L1142.34 40.7188L1102.5 36.9688L1062.66 32.75L1022.81 28.5312L982.969 24.3125L942.656 20.5625L902.344 17.2812L862.031 14.9375L822.188 14L781.406 14.9375L740.625 18.2188L699.844 20.0938L658.125 25.7188L625.781 33.6875L636.562 55.25L672.656 49.1562L712.031 40.25L750.469 32.2812L789.375 23.375L827.812 17.2812L866.25 12.5938L904.688 10.25L943.125 9.3125L982.031 10.25L1020.94 12.125L1059.38 14.9375Z" fill="#8FADBF" fill-opacity="0.06125"/>
<path d="M1284.84 44L1323.75 46.8125L1362.19 48.6875L1396.88 52.4375L1404.38 68.375L1373.44 70.7188L1334.53 66.5L1295.16 62.75L1255.78 58.0625L1215.94 53.8438L1175.62 50.5625L1135.78 47.2812L1095.47 44.9375L1055.62 44L1015.31 44.9375L975 48.2188L934.688 50.0938L893.906 55.7188L860.625 63.6875L863.906 84.3125L897.188 77.75L936.094 68.8438L974.531 60.875L1012.97 51.9688L1051.41 45.875L1090.31 41.1875L1128.75 38.8438L1167.66 38.375L1206.56 38.8438L1245.94 40.7188L1284.84 44Z" fill="#8FADBF" fill-opacity="0.06125"/>
<path d="M1618.59 49.625L1627.97 50.0938L1637.34 50.5625L1646.25 51.5L1649.06 55.25L1642.03 55.7188L1633.12 54.7812L1623.75 53.8438L1614.38 52.9062L1605.47 51.9688L1596.09 51.0312L1586.72 50.5625L1577.34 50.0938L1567.97 49.625L1558.59 50.0938L1549.69 50.5625L1540.31 51.0312L1531.41 52.4375L1522.97 54.3125L1518.75 59.4688L1524.84 57.5938L1533.75 55.7188L1543.12 53.8438L1552.5 51.5L1561.88 50.0938L1571.25 49.1562L1580.62 48.2188H1590.47H1599.84L1609.22 48.6875L1618.59 49.625Z" fill="#8FADBF" fill-opacity="0.06125"/>
<path d="M1920 60.875V64.625V67.4375V72.125V92.75V95.5625V90.4062V85.25V79.625L1883.44 74.4688L1833.28 69.7812L1782.66 66.0312L1732.5 63.2188L1681.88 61.8125L1631.72 63.2188L1582.5 67.4375L1532.81 69.7812L1484.06 77.2812L1437.66 87.125L1418.44 112.438L1452.19 103.531L1499.53 92.2812L1547.34 82.4375L1595.16 70.7188L1643.44 63.2188L1692.66 57.5938L1742.34 54.3125L1792.5 53.8438L1842.19 54.7812L1892.34 57.125L1920 60.875Z" fill="#8FADBF" fill-opacity="0.06125"/>
<path d="M1920 6.96875V9.78125V12.125V16.3438V32.2812V34.1562V29.9375V25.7188V21.0312V16.3438L1881.09 12.5938L1838.91 9.3125L1796.25 6.5L1754.06 5.5625L1711.88 6.96875L1670.62 10.25L1629.38 11.6562L1589.06 17.75L1549.69 26.1875L1529.06 50.0938L1556.72 43.5312L1596.56 33.6875L1636.88 25.7188L1677.19 15.875L1718.44 9.3125L1760.16 4.625L1801.88 1.8125L1844.53 1.34375L1886.72 1.8125L1920 3.6875V6.96875Z" fill="#8FADBF" fill-opacity="0.06125"/>
<path d="M1757.34 -25.375L1797.19 -22.5625L1837.03 -20.6875L1874.06 -16.9375L1890 -1.9375L1861.88 -0.53125L1822.97 -4.75L1783.59 -8.5L1743.75 -13.1875L1703.91 -17.4062L1663.12 -21.625L1622.81 -24.9062L1582.03 -27.25L1541.25 -28.1875L1500.94 -27.25L1460.62 -23.9688L1420.78 -22.5625L1380.94 -16.9375L1344.38 -8.5L1331.72 15.4062L1360.31 9.3125L1398.75 0.40625L1437.66 -7.5625L1476.56 -16.9375L1515.94 -23.0312L1555.78 -27.7188L1596.09 -30.5312L1636.41 -31L1676.72 -30.5312L1717.03 -28.6562L1757.34 -25.375Z" fill="#8FADBF" fill-opacity="0.06125"/>
<path d="M1313.91 38.8438L1327.03 39.7812L1339.69 40.25L1350.94 41.6562L1353.28 46.8125L1342.97 47.2812L1330.31 46.3438L1317.66 44.9375L1305 43.5312L1291.88 42.125L1279.22 40.7188L1266.09 39.7812L1253.44 39.3125L1240.31 38.8438L1227.66 39.3125L1214.53 40.25L1201.88 40.7188L1189.22 42.5938L1177.97 44.9375L1175.62 51.9688L1185.47 50.0938L1198.12 47.2812L1210.78 44.4688L1223.44 41.6562L1236.56 39.3125L1249.22 37.9062L1262.34 36.9688H1275L1288.12 37.4375L1301.25 37.9062L1313.91 38.8438Z" fill="#8FADBF" fill-opacity="0.06125"/>
<path d="M1274.53 28.5312L1325.16 32.2812L1376.25 35.0938L1421.72 39.7812L1432.03 60.875L1391.72 63.2188L1340.16 58.0625L1287.66 52.9062L1235.16 46.8125L1182.66 41.1875L1129.69 36.5L1076.25 32.2812L1023.28 29L969.844 28.0625L916.406 29.4688L862.969 33.6875L808.594 35.5625L753.75 43.5312L710.625 53.8438L720.938 81.9688L766.875 73.0625L817.969 61.3438L868.594 51.0312L918.75 39.3125L969.375 31.3438L1019.53 25.25L1070.16 21.9688L1121.25 21.0312L1172.34 22.4375L1223.44 24.7812L1274.53 28.5312Z" fill="#8FADBF" fill-opacity="0.06125"/>
<path d="M1104.38 -0.0625L1124.53 1.34375L1145.16 2.75L1162.5 4.625L1164.38 12.125L1147.97 13.0625L1127.34 11.1875L1106.72 8.84375L1086.09 6.5L1065.47 4.625L1044.84 2.28125L1023.75 0.875L1003.12 -0.53125L982.5 -1L961.875 -0.53125L940.781 1.34375L920.156 2.28125L899.062 5.09375L881.719 9.3125L883.125 21.0312L900.469 18.2188L921.094 13.0625L941.25 9.3125L961.406 4.15625L982.031 1.34375L1002.19 -1.46875L1022.81 -2.40625L1042.97 -2.875L1063.59 -2.40625L1083.75 -1.46875L1104.38 -0.0625Z" fill="#8FADBF" fill-opacity="0.06125"/>
<path d="M1459.69 23.8438L1504.22 27.125L1548.28 29.4688L1588.59 33.6875L1600.78 51.9688L1567.03 53.8438L1522.97 49.1562L1477.97 44.9375L1432.97 39.7812L1387.5 35.0938L1342.03 30.875L1296.09 27.125L1250.16 24.3125L1204.22 23.375L1158.28 24.7812L1112.81 28.0625L1066.41 29.9375L1020.47 36.5L981.562 45.875L980.625 70.25L1017.19 63.2188L1060.78 52.4375L1104.84 44L1148.44 33.2188L1192.5 26.6562L1236.56 21.0312L1281.09 18.2188L1325.62 17.75L1370.16 18.6875L1415.16 20.5625L1459.69 23.8438Z" fill="#8FADBF" fill-opacity="0.06125"/>
<path d="M777.188 30.4062L787.031 31.3438L797.344 31.8125L805.312 32.75L804.844 36.5L795.938 36.9688L785.625 36.0312L775.312 35.0938L765 34.1562L754.688 32.75L744.844 31.8125L734.531 31.3438L724.219 30.4062H713.906H703.594L693.281 31.3438L682.969 31.8125L672.188 33.2188L664.219 35.0938L666.562 40.7188L675.938 39.3125L686.25 36.9688L696.094 35.0938L706.406 32.75L716.719 30.875L726.562 29.9375L736.875 29H746.719H756.562L766.875 29.4688L777.188 30.4062Z" fill="#8FADBF" fill-opacity="0.06125"/>
<path d="M1751.72 -6.625L1777.03 -4.75L1801.88 -3.34375L1825.31 -1.46875L1834.22 8.375L1816.88 9.3125L1792.5 6.5L1768.12 4.15625L1743.28 1.34375L1718.44 -1.46875L1693.59 -3.8125L1668.28 -5.6875L1642.97 -7.09375L1617.66 -7.5625L1592.81 -7.09375L1568.44 -5.21875L1543.59 -4.28125L1519.69 -0.53125L1496.25 4.625L1485.47 19.1562L1502.34 15.4062L1526.25 9.3125L1550.62 4.625L1575 -1.46875L1599.84 -5.21875L1625.16 -8.03125L1650.47 -9.90625L1675.78 -10.375L1701.09 -9.90625L1726.88 -8.5L1751.72 -6.625Z" fill="#8FADBF" fill-opacity="0.06125"/>
<path d="M1075.31 66.9688L1112.34 69.7812L1149.38 72.125L1181.25 75.875L1185 91.3438L1154.53 93.2188L1116.56 89.4688L1078.59 85.7188L1040.62 81.5L1002.19 77.75L964.219 74L925.781 71.1875L887.344 68.8438L848.906 68.375L810.469 69.3125L771.562 72.125L732.656 74L692.812 79.625L661.875 87.125L671.25 106.344L705 99.7812L742.5 90.875L779.531 83.375L816.562 74.9375L853.594 68.8438L890.156 64.625L927.188 62.2812L963.75 61.8125L1000.78 62.75L1037.81 64.1562L1075.31 66.9688Z" fill="#8FADBF" fill-opacity="0.06125"/>
<path d="M1636.88 31.8125L1669.22 34.1562L1701.56 36.0312L1731.56 38.8438L1742.34 51.9688L1718.91 53.8438L1687.03 50.0938L1655.16 46.8125L1622.81 43.0625L1590 39.7812L1557.19 36.9688L1523.91 34.1562L1491.09 32.2812L1457.81 31.3438L1425 32.2812L1392.66 35.0938L1359.84 36.5L1327.97 41.1875L1298.44 47.75L1289.06 65.5625L1312.97 60.4062L1344.38 52.4375L1376.25 46.3438L1408.12 38.375L1440.47 33.6875L1472.81 29.4688L1505.62 27.5938L1538.44 27.125L1571.25 27.5938L1604.06 29.4688L1636.88 31.8125Z" fill="#8FADBF" fill-opacity="0.06125"/>
<path d="M1041.09 4.15625L1050.94 5.09375L1061.25 5.5625L1070.16 6.5L1070.62 10.25L1062.19 10.7188L1051.88 9.78125L1041.56 8.84375L1031.25 7.4375L1020.94 6.5L1010.62 5.5625L1000.31 4.625L990.469 4.15625H980.156H969.844L959.531 5.09375L949.219 5.5625L938.906 6.96875L930 8.84375L930.469 14.9375L938.906 13.5312L949.219 11.1875L959.531 8.84375L969.375 6.5L979.688 5.09375L990 3.6875L1000.31 3.21875L1010.16 2.75L1020.47 3.21875L1030.78 3.6875L1041.09 4.15625Z" fill="#8FADBF" fill-opacity="0.06125"/>
<path d="M1030.31 57.125L1067.34 59.9375L1104.38 61.8125L1136.25 65.5625L1139.06 81.0312L1108.59 82.9062L1070.62 79.1562L1032.66 75.4062L994.688 71.1875L956.25 67.4375L918.281 63.6875L879.844 60.875L841.406 58.5312L802.969 57.5938L764.531 58.5312L725.625 61.8125L686.719 63.2188L646.875 68.8438L616.406 76.3438L627.188 96.0312L661.406 89.4688L698.906 81.0312L735.938 73.5312L772.969 64.625L809.531 59L846.094 54.7812L882.656 51.9688L919.688 51.5L956.25 52.4375L993.281 54.3125L1030.31 57.125Z" fill="#8FADBF" fill-opacity="0.06125"/>
<path d="M363.75 9.3125L366.562 9.78125H369.375L371.719 10.25L370.781 11.1875H368.438L365.156 10.7188H362.344L359.531 10.25H356.719L353.438 9.78125L350.625 9.3125H347.812H345H341.719L338.906 9.78125H336.094L332.812 10.25L330.469 10.7188L332.344 12.5938L335.156 12.125L337.969 11.1875L340.781 10.7188L344.062 9.78125H346.875L349.688 9.3125L352.5 8.84375H355.312H358.125L360.938 9.3125H363.75Z" fill="#8FADBF" fill-opacity="0.06125"/>
<path d="M1796.25 40.25L1813.12 41.6562L1830 42.5938L1845.94 44L1852.03 51.0312L1840.31 51.5L1823.91 50.0938L1807.5 48.2188L1791.09 46.3438L1774.22 44.4688L1757.34 43.0625L1740.47 41.6562L1723.59 40.7188L1706.72 40.25L1689.84 40.7188L1673.44 42.125L1657.03 42.5938L1641.09 45.4062L1625.16 48.6875L1615.78 58.0625L1626.56 55.25L1642.97 51.0312L1659.38 47.75L1675.78 44L1693.12 41.1875L1710 39.3125L1727.34 37.9062H1744.69L1761.56 38.375L1778.91 38.8438L1796.25 40.25Z" fill="#8FADBF" fill-opacity="0.06125"/>
<path d="M592.031 10.7188L623.906 13.0625L655.312 14.9375L680.625 17.75L676.875 30.4062L648.281 31.8125L615.469 28.5312L582.656 25.25L549.844 21.5L517.031 18.2188L484.219 15.4062L451.406 12.5938L418.594 10.7188L385.781 10.25L352.969 10.7188L319.219 13.5312L285.469 14.4688L250.312 19.1562L225.938 25.7188L245.156 43.5312L278.438 38.8438L310.781 31.3438L342.656 25.25L374.531 17.75L405.938 12.5938L436.875 8.84375L467.812 6.96875L498.75 6.5L529.688 6.96875L561.094 8.375L592.031 10.7188Z" fill="#8FADBF" fill-opacity="0.06125"/>
<path d="M1920 -3.8125V-1.46875V0.40625V3.21875V15.875V17.2812V14V10.25V6.5L1891.41 3.21875L1858.59 0.40625L1825.78 -2.40625L1792.97 -4.28125L1760.16 -5.21875L1727.34 -4.28125L1695.47 -1.9375L1663.12 -0.53125L1632.19 4.15625L1601.25 10.7188L1583.91 29.9375L1605 24.7812L1636.41 17.2812L1667.81 10.7188L1699.22 3.21875L1731.56 -1.9375L1764.38 -5.6875L1797.66 -8.03125L1830.47 -8.5L1863.75 -7.5625L1897.03 -6.15625L1920 -3.8125Z" fill="#8FADBF" fill-opacity="0.06125"/>
<path d="M891.094 -7.09375L919.688 -4.75L947.812 -3.34375L971.25 -0.53125L971.719 10.25L947.344 11.6562L918.75 8.375L889.688 5.5625L860.625 2.28125L831.562 -0.53125L802.5 -3.34375L773.438 -5.6875L744.375 -7.5625L714.844 -8.03125L685.781 -7.5625L656.25 -5.21875L626.719 -3.8125L596.25 -0.0625L573.281 6.03125L582.188 22.4375L608.906 18.2188L637.969 11.6562L666.094 6.03125L694.688 -0.53125L722.812 -5.21875L750.469 -8.5L778.594 -10.375L806.719 -10.8438L834.844 -10.375L862.969 -8.96875L891.094 -7.09375Z" fill="#8FADBF" fill-opacity="0.06125"/>
<path d="M902.812 -2.875L924.844 -1L946.875 -0.0625L965.625 2.28125V10.7188L946.875 11.6562L924.375 9.3125L901.875 6.96875L878.906 4.625L856.406 2.28125L833.906 -0.0625L811.406 -1.9375L788.906 -2.875L765.938 -3.34375L743.438 -2.875L720.469 -1.46875L697.5 -0.53125L674.062 2.75L656.25 7.4375L661.875 20.0938L682.031 16.8125L704.531 11.6562L726.562 7.4375L748.594 2.28125L770.625 -1.46875L792.656 -3.8125L814.688 -5.6875H836.719L858.75 -5.21875L880.781 -4.28125L902.812 -2.875Z" fill="#8FADBF" fill-opacity="0.06125"/>
<path d="M1492.5 4.625L1510.31 6.03125L1527.66 6.96875L1543.59 8.375L1548.28 15.4062L1534.69 15.875L1517.81 14L1500.47 12.5938L1482.66 10.25L1465.31 8.375L1447.5 6.96875L1429.69 5.5625L1411.88 4.625L1394.53 4.15625L1376.72 4.625L1359.38 6.03125L1341.56 6.5L1324.69 8.84375L1308.75 12.5938L1303.59 22.9062L1316.72 20.0938L1333.59 15.875L1350.94 12.5938L1368.28 8.375L1386.09 5.5625L1403.91 3.6875L1421.25 2.28125H1439.06H1456.88L1474.69 3.21875L1492.5 4.625Z" fill="#8FADBF" fill-opacity="0.06125"/>
<path d="M825 39.3125L830.156 39.7812L835.312 40.25L839.531 40.7188V42.5938L834.844 43.0625L829.688 42.5938L824.531 41.6562L819.375 41.1875L813.75 40.7188L808.594 40.25L803.438 39.7812H798.281L793.125 39.3125L787.969 39.7812H782.344L777.188 40.25L772.031 41.1875L767.812 42.125L768.281 44.9375L772.969 44L778.125 43.0625L783.75 41.6562L788.906 40.7188L794.062 39.7812L799.219 39.3125L804.375 38.8438H809.531H814.688H819.844L825 39.3125Z" fill="#8FADBF" fill-opacity="0.06125"/>
<path d="M307.5 30.4062H311.719L315.938 30.875L319.219 31.3438L318.281 32.75L314.062 33.2188L309.844 32.75L305.156 32.2812L300.938 31.8125L296.719 31.3438L292.5 30.875L287.812 30.4062H283.594H279.375H275.156H270.469L266.25 30.875L261.562 31.3438L258.281 32.2812L260.625 34.625L265.312 34.1562L269.531 32.75L274.219 32.2812L278.438 30.875L282.656 30.4062L286.875 29.9375L291.094 29.4688H294.844H299.062L303.281 29.9375L307.5 30.4062Z" fill="#8FADBF" fill-opacity="0.06125"/>
<path d="M1840.78 -27.7188L1878.28 -24.9062L1915.31 -22.5625L1920 -19.2812V-5.6875V-3.8125L1904.53 -8.03125L1867.97 -11.7812L1830.94 -16L1793.91 -20.2188L1756.41 -23.5L1718.44 -26.7812L1680.94 -29.125L1642.97 -29.5938L1605.94 -29.125L1568.91 -25.8438L1531.88 -24.4375L1495.31 -19.2812L1461.09 -11.7812L1445.62 10.7188L1470.94 5.09375L1506.56 -3.34375L1542.66 -10.8438L1578.75 -19.2812L1615.78 -24.9062L1652.81 -29.5938L1690.31 -31.9375L1728.28 -32.4062L1765.78 -31.9375L1803.75 -30.0625L1840.78 -27.7188Z" fill="#8FADBF" fill-opacity="0.06125"/>
<path d="M1358.44 -28.1875L1392.66 -25.8438L1426.41 -23.9688L1456.88 -20.6875L1463.91 -8.03125L1437.66 -6.625L1403.91 -10.375L1369.69 -14.125L1335.47 -17.875L1300.78 -21.625L1266.09 -24.9062L1231.41 -27.7188L1196.72 -29.5938L1162.03 -30.5312L1126.88 -29.5938L1092.19 -26.7812L1057.5 -25.8438L1022.81 -20.6875L992.812 -13.6562L991.875 6.5L1020 1.8125L1053.75 -6.15625L1087.03 -12.7188L1120.78 -20.6875L1154.53 -25.8438L1188.28 -30.0625L1222.03 -32.4062L1256.25 -32.875L1290.47 -32.4062L1324.69 -31L1358.44 -28.1875Z" fill="#8FADBF" fill-opacity="0.06125"/>
<path d="M1549.22 29.9375L1598.44 33.6875L1647.66 36.5L1693.12 41.1875L1708.59 61.3438L1672.03 63.6875L1623.28 58.5312L1573.59 53.375L1523.44 47.75L1472.81 42.5938L1422.19 37.9062L1371.09 33.6875L1320 30.875L1268.91 29.9375L1217.81 30.875L1166.72 35.0938L1115.62 36.9688L1064.53 44.4688L1020.47 54.7812L1018.12 81.5L1057.97 73.5312L1106.72 61.8125L1155 51.9688L1203.75 40.25L1252.5 32.75L1301.25 27.125L1350.47 23.8438L1400.16 22.9062L1449.84 24.3125L1499.53 26.1875L1549.22 29.9375Z" fill="#8FADBF" fill-opacity="0.06125"/>
<path d="M1061.25 -5.21875L1088.91 -3.34375L1116.56 -1.9375L1140.47 0.875L1142.34 11.6562L1119.84 12.5938L1091.72 9.78125L1063.59 6.96875L1035.47 3.6875L1007.34 0.875L979.219 -1.9375L951.094 -4.28125L922.5 -5.6875L894.375 -6.15625L866.25 -5.6875L837.656 -3.34375L809.062 -2.40625L780 1.34375L757.031 6.96875L761.719 23.375L786.094 19.1562L813.75 12.5938L841.406 7.4375L869.062 0.875L896.25 -3.8125L923.906 -7.09375L951.094 -8.5L978.75 -8.96875L1006.41 -8.5L1034.06 -7.5625L1061.25 -5.21875Z" fill="#8FADBF" fill-opacity="0.06125"/>
<path d="M781.406 -15.5312L803.906 -14.125L826.406 -12.7188L844.688 -10.8438L843.75 -2.40625L824.062 -1.46875L801.094 -3.8125L778.125 -6.15625L755.156 -8.5L732.188 -10.8438L709.219 -13.1875L686.25 -15.0625L663.281 -16.4688L640.312 -16.9375L617.344 -16.4688L593.906 -14.5938L570.469 -13.6562L546.562 -10.375L528.281 -5.6875L536.719 7.4375L557.812 4.15625L580.781 -1L603.281 -5.6875L625.781 -10.8438L648.281 -14.125L670.312 -16.9375L692.344 -18.3438L714.844 -18.8125L736.875 -18.3438L758.906 -17.4062L781.406 -15.5312Z" fill="#8FADBF" fill-opacity="0.06125"/>
<path d="M775.312 -16.4688L814.688 -13.6562L854.062 -11.3125L886.875 -7.5625L885.469 7.4375L851.25 8.84375L810.469 4.625L769.219 0.875L728.438 -3.8125L687.656 -8.03125L646.406 -11.7812L605.625 -15.0625L564.844 -17.4062L523.594 -18.3438L482.344 -17.4062L440.156 -14.5938L397.969 -12.7188L354.375 -7.09375L322.969 0.875L344.062 24.3125L383.906 18.6875L424.219 9.3125L463.594 1.34375L503.438 -7.5625L542.344 -14.125L580.781 -18.8125L619.688 -21.1562L658.594 -22.0938L697.031 -21.1562L736.406 -19.2812L775.312 -16.4688Z" fill="#8FADBF" fill-opacity="0.06125"/>
<path d="M1096.88 45.4062L1108.59 46.3438L1120.31 46.8125L1130.16 48.2188L1131.09 52.9062L1121.72 53.375L1110 51.9688L1098.28 51.0312L1086.56 49.625L1074.84 48.6875L1063.12 47.2812L1051.41 46.3438L1039.69 45.875L1027.97 45.4062L1016.25 45.875L1004.53 46.8125L992.812 47.2812L981.094 49.1562L971.25 51.0312V57.5938L980.625 55.7188L992.344 52.9062L1004.06 50.5625L1015.78 47.75L1027.03 45.875L1038.75 44.4688L1050.47 44H1062.19H1073.91L1085.62 44.4688L1096.88 45.4062Z" fill="#8FADBF" fill-opacity="0.06125"/>
<path d="M1920 -35.2188V-32.4062V-30.5312V-27.7188V-15.0625V-13.6562V-17.4062V-20.6875V-24.9062V-28.6562L1892.34 -31.9375L1857.66 -34.75L1822.97 -36.625L1787.81 -37.5625L1753.59 -36.625L1719.84 -33.8125L1685.62 -32.4062L1652.81 -27.7188L1620 -20.6875L1601.25 0.40625L1623.28 -4.75L1656.09 -12.7188L1689.38 -19.2812L1723.12 -27.25L1757.34 -32.875L1791.56 -37.0938L1826.72 -38.9688L1861.88 -39.9062L1897.03 -38.9688L1920 -37.5625V-35.2188Z" fill="#8FADBF" fill-opacity="0.06125"/>
<path d="M1108.59 -10.8438L1125.47 -9.4375L1142.34 -8.5L1156.88 -7.09375L1158.28 -1L1144.22 -0.0625L1127.34 -1.9375L1110.47 -3.8125L1093.59 -5.6875L1076.72 -7.5625L1059.84 -8.96875L1042.5 -10.375L1025.62 -11.3125L1008.28 -11.7812L991.406 -11.3125L974.531 -9.90625L957.188 -9.4375L940.312 -7.09375L925.781 -3.34375L926.25 6.5L940.312 4.15625L957.188 -0.0625L974.062 -3.34375L990.938 -7.09375L1007.81 -9.90625L1024.22 -11.7812L1041.09 -13.1875H1057.97L1074.84 -12.7188L1091.72 -12.25L1108.59 -10.8438Z" fill="#8FADBF" fill-opacity="0.06125"/>
<path d="M883.594 6.96875L888.75 7.4375H893.906L898.594 7.90625L898.125 10.25H893.906L888.281 9.78125L883.125 9.3125L877.5 8.84375L872.344 7.90625L867.188 7.4375L861.562 6.96875H856.406H850.781H845.625L840.469 7.4375H834.844L829.688 8.375L825 9.3125L825.469 12.5938L830.156 11.6562L835.781 10.25L840.938 9.3125L846.562 7.90625L851.719 6.96875L856.875 6.5L862.031 6.03125H867.656H872.812L877.969 6.5L883.594 6.96875Z" fill="#8FADBF" fill-opacity="0.06125"/>
<path d="M689.531 46.3438L739.688 50.0938L789.844 52.9062L831.094 57.5938L828.281 78.6875L783.75 81.5L730.781 76.3438L677.812 71.1875L625.312 65.0938L572.344 59.9375L519.375 55.25L466.406 51.0312L413.906 47.75L360.469 46.8125L307.031 48.2188L252.188 52.4375L197.344 54.3125L139.688 62.2812L100.781 72.125L136.875 99.3125L190.781 90.4062L242.812 78.6875L293.438 68.8438L343.594 56.6562L393.281 49.1562L442.5 43.0625L491.719 39.7812L540.469 39.3125L590.156 40.25L639.375 42.5938L689.531 46.3438Z" fill="#8FADBF" fill-opacity="0.06125"/>
<path d="M323.906 64.625L329.531 65.0938L335.625 65.5625L339.844 66.0312L338.438 68.375L332.812 68.8438L327.188 68.375L321.094 67.4375L315 66.9688L309.375 66.5L303.281 66.0312L297.656 65.5625L291.562 65.0938H285.938H279.844L273.75 65.5625L267.656 66.0312L261.562 66.5L257.344 67.9062L260.625 70.7188L266.719 69.7812L272.812 68.375L278.438 67.4375L284.531 66.0312L290.156 65.0938L295.781 64.625L301.406 64.1562H307.031H312.656H318.281L323.906 64.625Z" fill="#8FADBF" fill-opacity="0.06125"/>
<path d="M516.562 19.625L553.125 22.4375L589.688 24.3125L618.75 27.5938L613.125 42.125L579.844 44L541.406 40.25L502.969 36.5L464.531 32.2812L426.562 28.5312L388.125 24.7812L350.156 21.9688L312.188 19.625L273.75 18.6875L234.844 19.625L195.469 22.9062L156.094 24.3125L114.375 29.4688L86.7188 36.9688L113.438 57.5938L152.812 51.9688L190.781 43.0625L227.812 36.0312L264.844 27.125L300.938 21.5L337.031 17.2812L372.656 14.9375L408.281 14.4688L444.375 14.9375L480 16.8125L516.562 19.625Z" fill="#8FADBF" fill-opacity="0.06125"/>
<path d="M1023.75 34.1562H1025.16L1026.56 34.625H1027.97V35.0938H1026.56H1025.16H1023.75L1022.34 34.625H1020.94H1019.53L1018.12 34.1562H1016.72H1014.84H1013.44H1012.03L1010.62 34.625H1009.22L1007.81 35.0938V35.5625H1009.22L1010.62 35.0938H1012.03L1013.44 34.625L1014.84 34.1562H1016.25H1018.12H1019.53H1020.94H1022.34H1023.75Z" fill="#8FADBF" fill-opacity="0.06125"/>
<path d="M110.625 67.4375L120 67.9062L129.375 68.8438L136.406 69.7812L133.125 73.5312L123.75 74L113.906 73.0625L104.062 72.125L94.2188 71.1875L84.375 70.25L74.5312 69.3125L64.6875 68.375L54.8438 67.9062H45H35.1562L25.3125 68.8438L15 69.3125L4.21875 70.7188L0 72.5938L5.15625 77.2812L15.9375 75.875L25.7812 73.5312L35.625 71.6562L45 69.3125L54.8438 67.9062L64.2188 66.9688L73.125 66.0312H82.5H91.875L101.25 66.5L110.625 67.4375Z" fill="#8FADBF" fill-opacity="0.06125"/>
<path d="M1375.78 44.9375L1400.62 46.8125L1425 47.75L1447.03 50.5625L1452.19 60.4062L1433.44 61.8125L1409.06 59L1384.22 56.6562L1359.38 53.8438L1334.53 51.0312L1309.22 48.6875L1284.38 46.8125L1259.06 45.4062L1234.22 44.9375L1208.91 45.4062L1184.06 47.75L1159.22 48.6875L1134.38 52.4375L1112.34 57.125L1109.53 70.7188L1128.75 66.5L1153.12 60.875L1177.5 55.7188L1202.34 50.0938L1226.72 45.875L1251.56 43.0625L1276.41 41.6562L1301.25 41.1875L1326.09 41.6562L1350.94 43.0625L1375.78 44.9375Z" fill="#8FADBF" fill-opacity="0.06125"/>
<path d="M319.688 3.6875L356.719 6.5L394.219 8.84375L422.812 12.125L414.375 26.6562L378.75 28.5312L339.375 24.7812L299.531 20.5625L260.156 16.3438L221.25 12.5938L181.875 8.84375L142.969 5.5625L104.062 3.6875L64.6875 2.75L25.3125 3.6875L0 6.5V7.90625V13.5312V21.0312V42.5938V36.9688V28.0625L26.7188 20.5625L64.6875 12.125L101.25 6.03125L137.812 1.8125L173.906 -1L210 -1.46875L246.094 -0.53125L282.656 0.875L319.688 3.6875Z" fill="#8FADBF" fill-opacity="0.06125"/>
<path d="M232.5 -3.34375L277.031 -0.0625L321.562 2.28125L355.781 6.5L344.062 23.8438L300.938 26.1875L253.125 21.5L205.312 16.8125L157.969 11.6562L110.156 6.5L63.2812 2.28125L15.9375 -1.46875L0 -3.8125V-5.21875V-3.8125V-0.53125V1.34375V7.90625V17.2812V43.0625V36.0312V25.7188V16.8125V6.5V-0.53125L15.4688 -6.15625L58.5938 -8.96875L101.719 -9.4375L144.844 -8.96875L188.438 -6.625L232.5 -3.34375Z" fill="#8FADBF" fill-opacity="0.06125"/>
<path d="M292.5 9.3125L335.625 12.5938L379.219 14.9375L412.969 18.6875L402.656 36.0312L361.406 38.375L314.531 33.6875L268.125 29L221.719 24.3125L175.312 19.1562L129.375 15.4062L83.4375 11.6562L37.9688 8.84375L0 7.90625V9.3125V12.5938V14.4688V21.0312V29.9375V54.7812V47.75V37.4375V29V18.6875L37.5 11.6562L80.1562 6.5L122.344 3.6875L164.531 3.21875L206.719 3.6875L249.375 6.03125L292.5 9.3125Z" fill="#8FADBF" fill-opacity="0.06125"/>
<path d="M1026.56 17.2812L1037.34 18.2188L1048.12 18.6875L1057.5 19.625L1057.97 23.8438L1049.06 24.3125L1037.81 23.375L1027.03 22.4375L1015.78 21.0312L1005 20.0938L993.75 18.6875L982.969 18.2188L971.719 17.2812H960.938H949.688L938.438 18.2188L927.656 18.6875L916.406 20.0938L907.031 22.4375L907.969 28.5312L916.875 27.125L928.125 24.3125L938.906 22.4375L949.688 19.625L960.938 17.75L971.719 16.8125L982.5 15.875H993.75H1004.53L1015.31 16.3438L1026.56 17.2812Z" fill="#8FADBF" fill-opacity="0.06125"/>
<path d="M362.812 15.4062L391.875 17.75L421.406 19.625L443.906 22.4375L437.344 33.6875L410.156 35.0938L379.219 32.2812L348.281 29L317.344 25.7188L286.875 22.4375L256.406 19.625L225.938 17.2812L195.469 15.875L165 14.9375L134.062 15.875L102.656 18.2188L70.7812 19.1562L37.5 23.375L15.4688 29.4688L38.9062 46.3438L71.25 41.6562L101.719 34.625L131.719 29L161.25 21.9688L190.312 17.2812L219.375 14L247.5 12.125L276.094 11.6562L304.688 12.125L333.75 13.5312L362.812 15.4062Z" fill="#8FADBF" fill-opacity="0.06125"/>
<path d="M305.156 -2.875L330 -1L355.312 0.40625L374.531 2.75L367.969 12.125L344.531 13.5312L318.281 10.7188L292.031 7.90625L265.781 5.09375L240 2.75L213.75 0.40625L187.969 -1.9375L162.188 -3.34375L136.406 -3.8125L110.156 -3.34375L83.4375 -1.46875L56.7188 -0.0625L28.5938 3.21875L9.84375 8.375L29.5312 22.9062L57.1875 19.1562L83.4375 13.5312L108.75 8.375L134.062 2.75L158.906 -1.46875L183.281 -4.28125L207.656 -6.15625L232.031 -6.625L256.406 -6.15625L280.781 -4.75L305.156 -2.875Z" fill="#8FADBF" fill-opacity="0.06125"/>
<path d="M601.406 32.2812L651.094 36.0312L701.25 38.8438L742.031 43.5312L736.875 64.1562L691.875 66.5L639.375 61.3438L586.406 56.1875L533.438 50.5625L480.469 44.9375L427.5 40.25L375 36.0312L322.031 33.2188L269.062 31.8125L215.625 33.2188L160.781 37.4375L105.469 39.3125L47.8125 47.2812L9.84375 57.125L49.6875 84.7812L104.531 76.3438L156.562 64.625L207.188 54.7812L257.344 42.5938L306.562 35.0938L355.781 29L404.531 25.7188L453.281 25.25L502.5 26.1875L551.719 28.5312L601.406 32.2812Z" fill="#8FADBF" fill-opacity="0.06125"/>
<path d="M708.75 6.03125L723.75 6.96875L738.75 7.90625L750.469 9.3125L749.531 14.9375L736.406 15.875L720.938 14.4688L705.938 12.5938L690.469 11.1875L675.469 9.3125L660 7.90625L645 6.96875L630 6.03125L614.531 5.5625L599.531 6.03125L584.062 6.96875L568.594 7.90625L552.656 9.78125L540.938 13.0625L546.094 21.5L560.156 19.1562L575.625 15.875L590.625 13.0625L605.625 9.3125L620.156 6.96875L635.156 5.09375L649.688 4.15625H664.688H679.219L693.75 5.09375L708.75 6.03125Z" fill="#8FADBF" fill-opacity="0.06125"/>
<path d="M1501.88 14.4688L1511.72 14.9375L1521.09 15.875L1529.53 16.3438L1531.88 20.0938L1524.84 20.5625L1515.47 19.625L1506.09 18.6875L1496.72 17.75L1487.34 16.8125L1477.97 15.875L1468.59 14.9375L1458.75 14.4688L1449.38 14L1440 14.4688L1430.62 15.4062H1421.25L1412.34 16.8125L1403.44 18.6875L1400.16 24.3125L1406.72 22.9062L1416.09 20.5625L1425.47 18.6875L1434.84 16.3438L1444.22 14.9375L1454.06 14L1463.44 13.0625H1473.28H1482.66L1492.5 13.5312L1501.88 14.4688Z" fill="#8FADBF" fill-opacity="0.06125"/>
<path d="M1396.41 0.40625L1420.31 1.8125L1444.22 3.21875L1465.31 5.5625L1470.47 14.4688L1452.19 15.4062L1428.75 13.0625L1404.84 10.7188L1380.94 7.90625L1357.03 5.5625L1333.12 3.21875L1308.75 1.34375L1284.84 -0.0625L1260.47 -0.53125L1236.56 -0.0625L1212.66 1.8125L1188.75 2.75L1164.84 6.03125L1143.75 11.1875L1140 24.7812L1158.75 21.0312L1182.19 15.875L1205.62 11.1875L1229.06 5.5625L1252.97 1.8125L1276.41 -1L1300.31 -2.875L1324.69 -3.34375L1348.59 -2.875L1372.5 -1.46875L1396.41 0.40625Z" fill="#8FADBF" fill-opacity="0.06125"/>
<path d="M378.281 31.8125L401.25 33.6875L424.219 35.0938L442.031 36.9688L436.875 46.3438L415.312 47.75L391.406 45.4062L367.031 43.0625L343.125 40.25L319.219 37.9062L295.312 35.5625L271.406 33.6875L247.5 32.2812L223.594 31.8125L199.688 32.2812L174.844 34.1562L150 35.0938L124.688 38.8438L106.875 43.0625L123.75 56.1875L148.594 52.4375L172.5 46.8125L195.938 42.5938L219.375 36.9688L242.344 33.2188L264.844 30.4062L287.344 29L309.844 28.5312L332.344 29L355.312 30.4062L378.281 31.8125Z" fill="#8FADBF" fill-opacity="0.06125"/>
<path d="M906.562 2.28125L911.25 2.75H915.938L919.688 3.21875L919.219 5.09375H915.469L911.25 4.625L906.562 4.15625L901.875 3.6875L897.656 3.21875L892.969 2.75H888.281L883.594 2.28125H879.375H874.688L870 2.75H865.781L861.094 3.6875L857.344 4.625L857.812 6.96875L861.562 6.5L866.25 5.5625L870.469 4.625L875.156 3.21875L879.844 2.75L884.062 2.28125L888.75 1.8125H892.969H897.656L902.344 2.28125H906.562Z" fill="#8FADBF" fill-opacity="0.06125"/>
<path d="M1609.69 -13.6562L1624.22 -12.7188L1638.28 -11.7812L1651.41 -10.375L1655.62 -5.21875L1644.84 -4.75L1631.25 -6.15625L1617.19 -7.5625L1603.12 -8.96875L1589.06 -10.8438L1575 -11.7812L1560.47 -13.1875L1546.41 -14.125H1532.34H1518.28L1504.22 -12.7188L1490.16 -12.25L1476.56 -10.375L1463.44 -7.5625L1457.81 0.875L1467.19 -1L1481.25 -4.28125L1495.31 -7.09375L1508.91 -10.375L1523.44 -12.7188L1537.5 -14.5938L1552.03 -15.5312H1566.56L1581.09 -15.0625L1595.62 -14.5938L1609.69 -13.6562Z" fill="#8FADBF" fill-opacity="0.06125"/>
<path d="M1045.31 -8.96875L1077.66 -6.625L1110 -4.75L1138.12 -1.9375L1140.47 10.7188L1113.75 12.125L1080.47 8.375L1047.66 5.09375L1014.38 1.34375L980.625 -2.40625L947.344 -5.21875L914.062 -8.03125L880.312 -9.90625L847.031 -10.375L813.281 -9.90625L779.531 -7.09375L745.312 -6.15625L711.094 -1.46875L683.906 5.5625L691.406 24.7812L720.938 19.625L753.75 12.125L786.094 5.5625L818.438 -1.9375L850.781 -7.09375L883.125 -10.8438L915.469 -13.1875L947.812 -13.6562L980.156 -13.1875L1012.5 -11.7812L1045.31 -8.96875Z" fill="#8FADBF" fill-opacity="0.06125"/>
<path d="M1352.34 -11.7812L1393.59 -8.5L1434.84 -6.15625L1471.41 -2.40625L1480.78 13.5312L1448.91 14.9375L1407.66 10.7188L1365.94 6.5L1324.22 1.8125L1282.03 -2.875L1239.38 -6.625L1197.19 -9.90625L1154.53 -12.7188L1112.34 -13.6562L1069.69 -12.7188L1027.03 -9.4375L984.375 -7.5625L941.25 -1.46875L905.625 6.96875L907.5 30.875L942.188 24.7812L982.969 15.4062L1023.75 6.96875L1064.53 -2.40625L1105.31 -8.96875L1146.09 -14.125L1187.34 -16.4688L1228.59 -17.4062L1269.84 -16.4688L1311.09 -14.5938L1352.34 -11.7812Z" fill="#8FADBF" fill-opacity="0.06125"/>
<path d="M1396.41 -3.8125L1410 -2.875L1423.59 -1.9375L1435.31 -0.53125L1438.12 4.625L1427.81 5.09375L1414.69 3.6875L1401.09 2.28125L1387.5 0.875L1373.91 -1L1360.31 -1.9375L1346.72 -3.34375L1333.12 -3.8125L1319.53 -4.28125L1305.94 -3.8125L1292.81 -2.875L1279.22 -2.40625L1266.09 -0.53125L1253.91 2.28125L1250.62 10.25L1260.94 8.375L1274.06 5.09375L1287.19 2.28125L1300.78 -0.53125L1314.38 -2.875L1327.97 -4.28125L1341.56 -5.21875L1355.16 -5.6875L1368.75 -5.21875L1382.81 -4.75L1396.41 -3.8125Z" fill="#8FADBF" fill-opacity="0.06125"/>
<path d="M1710.94 28.0625L1742.81 30.4062L1773.75 31.8125L1803.28 35.0938L1814.53 47.75L1792.03 49.1562L1761.56 45.875L1730.62 42.5938L1699.22 38.8438L1667.81 35.5625L1635.94 32.75L1604.06 30.4062L1572.19 28.5312L1540.78 27.5938L1508.91 28.5312L1477.5 30.875L1446.09 32.2812L1415.62 36.9688L1386.56 43.0625L1375.31 60.4062L1397.81 55.7188L1428.28 48.2188L1458.75 42.125L1489.69 34.625L1520.62 29.9375L1552.03 26.1875L1583.91 23.8438L1615.78 23.375L1647.66 24.3125L1679.53 25.7188L1710.94 28.0625Z" fill="#8FADBF" fill-opacity="0.06125"/>
<path d="M1607.34 3.6875L1636.41 6.03125L1665.47 7.4375L1692.19 10.25L1701.56 21.5L1680 22.9062L1651.88 19.625L1622.81 16.8125L1594.22 13.5312L1564.69 10.25L1535.62 7.4375L1506.09 5.09375L1476.56 3.6875L1447.03 2.75L1417.97 3.6875L1388.91 6.03125L1359.84 6.96875L1331.25 11.1875L1305 17.2812L1296.56 33.6875L1317.66 29.4688L1345.78 22.4375L1374.38 16.8125L1402.97 10.25L1432.03 5.5625L1461.09 2.28125L1490.16 0.40625L1519.69 -0.0625L1548.75 0.40625L1578.28 1.8125L1607.34 3.6875Z" fill="#8FADBF" fill-opacity="0.06125"/>
<path d="M929.062 -14.5938L953.906 -12.7188L978.281 -11.3125L998.906 -8.96875L999.375 0.40625L978.75 1.34375L953.906 -1.46875L928.594 -3.8125L903.75 -6.625L878.438 -9.4375L853.125 -11.7812L828.281 -13.6562L802.969 -15.0625L777.656 -15.5312L752.344 -15.0625L727.031 -13.1875L701.25 -12.25L675.469 -8.96875L655.312 -3.8125L661.406 11.1875L683.906 7.4375L708.75 1.8125L733.594 -3.34375L757.969 -8.96875L782.344 -12.7188L807.188 -16L831.562 -17.4062L855.938 -17.875L880.312 -17.4062L904.688 -16.4688L929.062 -14.5938Z" fill="#8FADBF" fill-opacity="0.06125"/>
<path d="M1788.28 58.5312L1842.66 62.2812L1897.03 65.5625L1920 70.7188V93.6875V96.5L1880.62 91.3438L1826.25 85.7188L1770.94 79.1562L1715.62 73.5312L1659.38 68.375L1603.12 63.6875L1546.41 60.875L1490.16 59.4688L1433.91 60.875L1378.12 65.5625L1321.88 67.9062L1266.56 76.3438L1216.41 87.125L1204.69 115.719L1245.94 105.875L1298.91 93.2188L1351.88 82.4375L1404.84 69.3125L1458.75 60.875L1513.12 54.7812L1567.97 51.0312L1622.81 50.5625L1678.12 51.5L1733.44 54.3125L1788.28 58.5312Z" fill="#8FADBF" fill-opacity="0.06125"/>
<path d="M1097.81 -20.6875L1121.25 -18.8125L1144.69 -17.875L1164.84 -15.5312L1166.72 -6.625L1147.5 -5.6875L1124.06 -8.5L1100.62 -10.8438L1076.72 -13.6562L1053.28 -16L1029.38 -18.3438L1005.47 -20.2188L981.562 -21.625L957.656 -22.0938L933.75 -21.625L909.844 -19.75L885.938 -18.8125L862.031 -15.5312L842.344 -10.8438L844.219 3.21875L864.844 -0.0625L888.281 -5.21875L911.25 -9.90625L934.688 -15.5312L957.656 -19.2812L981.094 -22.0938L1004.53 -23.5L1027.5 -23.9688L1050.94 -23.5L1074.38 -22.5625L1097.81 -20.6875Z" fill="#8FADBF" fill-opacity="0.06125"/>
<path d="M1611.09 21.9688L1635 23.8438L1659.38 25.25L1681.88 27.125L1689.38 36.9688L1671.56 37.9062L1647.66 35.5625L1623.75 33.2188L1599.84 30.4062L1575.47 27.5938L1551.09 25.7188L1526.25 23.375L1501.88 21.9688L1477.5 21.5L1453.12 21.9688L1428.75 24.3125L1404.38 25.25L1380.94 28.5312L1358.91 33.6875L1350.94 47.2812L1368.28 43.5312L1391.72 37.4375L1415.62 32.75L1439.53 27.125L1463.44 23.375L1487.81 20.5625L1512.66 18.6875H1537.03L1561.88 19.1562L1586.25 20.0938L1611.09 21.9688Z" fill="#8FADBF" fill-opacity="0.06125"/>
<path d="M449.531 40.7188L480.938 43.0625L511.875 44.4688L536.719 47.75L530.625 60.4062L502.031 61.8125L469.219 58.5312L436.406 55.7188L403.594 51.9688L371.25 48.6875L338.906 45.875L306.562 43.0625L274.219 41.1875L241.406 40.7188L208.594 41.6562L175.312 44L141.562 45.4062L106.406 50.0938L82.5 56.1875L105.469 73.5312L139.688 67.9062L172.031 60.875L203.438 54.3125L235.312 47.2812L265.781 42.125L296.719 38.375L327.188 36.5L357.656 36.0312L388.125 36.5L418.594 38.375L449.531 40.7188Z" fill="#8FADBF" fill-opacity="0.06125"/>
<path d="M512.812 30.875L549.844 33.6875L586.875 35.5625L616.406 39.3125L610.781 54.3125L577.031 56.1875L538.125 52.4375L499.219 48.6875L460.312 44L421.875 40.25L382.969 36.9688L344.531 33.6875L306.094 31.8125L267.188 30.875L228.281 31.8125L188.438 34.625L148.125 36.5L106.406 41.6562L78.2812 49.1562L105.469 69.7812L145.781 63.6875L184.219 54.7812L221.25 47.75L258.75 38.8438L295.312 33.2188L331.406 28.5312L367.5 26.1875L403.594 25.7188L439.688 26.6562L476.25 28.0625L512.812 30.875Z" fill="#8FADBF" fill-opacity="0.06125"/>
<path d="M1438.59 6.5L1461.56 8.375L1484.53 9.78125L1505.16 11.6562L1510.78 20.5625L1492.97 21.5L1470.47 19.1562L1447.5 16.8125L1424.53 14.4688L1401.56 11.6562L1378.12 9.78125L1355.16 7.90625L1331.72 6.5L1308.28 6.03125L1285.31 6.5L1261.88 8.375L1238.91 9.3125L1215.94 12.5938L1195.78 17.2812L1191.09 30.4062L1208.44 27.125L1231.41 21.5L1253.91 16.8125L1276.88 11.6562L1299.38 7.90625L1322.81 5.09375L1345.78 3.6875L1369.22 3.21875L1392.19 3.6875L1415.62 5.09375L1438.59 6.5Z" fill="#8FADBF" fill-opacity="0.06125"/>
<path d="M748.594 -3.8125L766.875 -2.40625L785.156 -1.46875L800.156 0.40625L799.219 7.4375L782.812 7.90625L764.062 6.03125L745.312 4.15625L726.562 2.28125L707.812 0.40625L689.062 -1.46875L670.312 -2.875L651.562 -4.28125H632.812L614.062 -3.8125L595.312 -2.40625L576.094 -1.9375L556.406 0.875L541.875 4.625L548.438 15.4062L565.781 12.5938L584.531 8.375L602.812 4.625L621.562 0.40625L639.375 -2.875L657.656 -4.75L675.938 -6.15625H694.219H712.031L730.312 -5.21875L748.594 -3.8125Z" fill="#8FADBF" fill-opacity="0.06125"/>
<path d="M774.375 7.4375L797.344 9.3125L820.312 10.7188L839.531 12.5938L838.125 21.5L818.438 22.9062L794.531 20.0938L771.094 17.75L747.656 15.4062L724.219 13.0625L700.312 10.7188L676.875 8.84375L653.438 7.4375L630 6.96875L606.094 7.4375L582.188 9.3125L558.281 10.25L533.438 13.5312L515.156 18.2188L523.594 31.3438L545.625 28.0625L569.062 22.4375L592.5 18.2188L615.469 12.5938L637.969 8.84375L660.938 6.5L683.438 4.625H706.406L728.906 5.09375L751.875 6.03125L774.375 7.4375Z" fill="#8FADBF" fill-opacity="0.06125"/>
<path d="M504.844 -27.25L538.594 -24.9062L572.812 -23.0312L600 -20.2188L594.375 -7.09375L563.438 -5.6875L527.344 -9.4375L491.719 -13.1875L456.094 -16.9375L420.938 -20.6875L385.312 -23.9688L350.156 -26.7812L314.531 -28.6562L278.906 -29.5938L243.281 -28.6562L206.719 -25.8438L169.688 -24.9062L131.25 -19.75L105.469 -12.7188L129.844 7.90625L166.406 2.75L201.562 -5.21875L236.25 -11.7812L270.469 -19.75L304.219 -25.375L337.5 -29.125L370.781 -31.4688L404.062 -31.9375L437.344 -31.4688L471.094 -30.0625L504.844 -27.25Z" fill="#8FADBF" fill-opacity="0.06125"/>
<path d="M822.656 64.1562L869.062 67.9062L915.469 70.25L954.375 74.9375V94.625L914.062 97.4375L865.781 92.2812L817.031 87.5938L768.75 82.4375L720 77.75L671.25 73.0625L622.5 69.3125L573.75 66.5L525 65.5625L475.781 66.9688L425.625 70.7188L375.469 72.5938L323.438 80.0938L286.406 89L312.656 113.375L360 105.406L407.812 94.1562L454.219 84.7812L501.094 74L547.031 66.5L592.5 61.3438L638.438 58.0625L684.375 57.5938L730.312 58.5312L776.25 60.875L822.656 64.1562Z" fill="#8FADBF" fill-opacity="0.06125"/>
<path d="M1552.03 5.5625L1597.03 8.84375L1642.03 11.1875L1683.28 15.4062L1697.81 33.2188L1664.06 35.0938L1619.53 30.4062L1574.06 25.7188L1528.59 20.5625L1482.66 15.875L1436.25 11.1875L1389.84 7.90625L1343.44 5.09375L1296.56 4.15625L1250.16 5.09375L1204.22 8.84375L1157.34 10.7188L1111.41 17.2812L1071.09 26.6562L1066.88 51.9688L1102.97 44.9375L1147.03 34.625L1191.56 25.7188L1235.62 14.9375L1280.16 7.90625L1325.16 2.75L1370.16 -0.0625L1415.62 -1L1461.09 -0.0625L1506.56 1.8125L1552.03 5.5625Z" fill="#8FADBF" fill-opacity="0.06125"/>
<path d="M1423.12 61.8125L1477.03 66.0312L1530.94 68.8438L1579.69 74.4688L1594.22 96.9688L1552.97 100.25L1498.59 94.625L1443.75 89L1388.44 82.9062L1332.66 77.2812L1276.88 72.125L1220.62 67.4375L1164.38 64.625L1108.12 63.2188L1051.41 64.625L995.156 69.3125L937.969 71.6562L880.781 80.0938L833.906 90.875L839.531 119L885.938 109.156L939.375 96.5L992.812 85.7188L1045.78 73.0625L1099.22 64.625L1152.66 58.5312L1206.56 54.7812L1260.47 54.3125L1314.38 55.25L1368.75 58.0625L1423.12 61.8125Z" fill="#8FADBF" fill-opacity="0.06125"/>
<path d="M963.75 76.3438L1020 80.5625L1076.25 83.8438L1124.06 89.4688L1128.28 113.375L1080.94 117.125L1022.34 111.031L963.75 105.406L905.156 98.8438L846.094 93.2188L786.562 87.5938L727.5 82.9062L668.438 79.625L608.906 78.6875L548.906 80.0938L487.969 84.7812L427.031 87.5938L363.75 96.0312L318.281 107.281L348.281 135.875L405 125.562L462.188 112.438L518.906 101.188L574.688 87.5938L630 79.1562L685.312 72.5938L740.625 68.8438L795.938 68.375L851.719 69.3125L907.5 72.125L963.75 76.3438Z" fill="#8FADBF" fill-opacity="0.06125"/>
<path d="M387.656 -17.4062L427.969 -14.125L468.75 -12.25L500.156 -8.5L492.188 6.96875L454.219 8.84375L411.094 4.625L368.438 0.40625L325.312 -4.28125L282.656 -8.96875L240.469 -12.7188L197.812 -16L155.625 -18.3438L112.5 -19.2812L69.375 -18.3438L25.3125 -15.0625L0 -13.6562V-8.03125V0.875V24.7812V18.6875L28.125 9.3125L69.375 1.34375L110.156 -8.5L150 -14.5938L189.844 -19.75L229.219 -22.0938L268.125 -23.0312L307.969 -22.0938L347.812 -20.2188L387.656 -17.4062Z" fill="#8FADBF" fill-opacity="0.06125"/>
<path d="M840 28.0625L867.656 29.9375L895.312 31.8125L918.75 34.1562L917.812 45.4062L894.375 46.8125L865.781 44L837.188 41.1875L808.594 37.9062L780 35.0938L751.875 32.2812L723.281 29.9375L694.688 28.5312L666.094 27.5938L637.5 28.5312L608.438 30.875L579.375 31.8125L549.375 36.0312L526.875 41.6562L537.188 57.125L563.438 52.4375L591.562 45.875L619.688 40.7188L647.344 34.1562L675 29.4688L702.188 26.1875L729.844 24.3125H757.031L784.688 24.7812L812.344 25.7188L840 28.0625Z" fill="#8FADBF" fill-opacity="0.06125"/>
<path d="M1920 27.125V30.875V33.6875V37.9062V57.5938V59.9375V54.7812V50.0938V44.4688V39.3125V34.625V30.875L1884.84 28.0625L1835.62 27.125L1786.88 28.0625L1738.59 31.8125L1690.31 34.1562L1643.91 41.1875L1597.5 51.0312L1571.72 77.2812L1603.12 69.3125L1649.06 58.0625L1695.47 48.6875L1742.34 37.4375L1790.16 29.9375L1838.44 24.3125L1887.19 21.0312L1920 20.5625V21.5V23.8438V27.125Z" fill="#8FADBF" fill-opacity="0.06125"/>
<path d="M717.188 23.8438L729.844 24.7812L742.5 25.25L752.812 26.6562L751.875 31.3438L740.625 32.2812L727.5 30.875L714.375 29.4688L701.25 28.0625L688.594 26.6562L675.469 25.7188L662.344 24.3125L649.219 23.8438L636.562 23.375L623.438 23.8438L610.312 24.7812L597.188 25.25L583.594 27.125L573.281 29.9375L577.5 36.9688L589.688 35.0938L602.344 31.8125L615.469 29.4688L628.125 26.1875L640.781 24.3125L653.438 22.9062L666.094 21.9688H678.75H691.406L704.062 22.9062L717.188 23.8438Z" fill="#8FADBF" fill-opacity="0.06125"/>
<path d="M1042.5 8.84375L1062.66 10.25L1082.81 11.1875L1100.16 13.0625L1101.56 21.0312L1084.69 21.9688L1064.53 19.625L1043.91 17.75L1023.75 15.4062L1003.12 13.0625L982.969 11.1875L962.344 9.78125L941.719 8.375L921.094 7.90625L900.938 8.84375L880.312 10.25L859.219 11.1875L838.594 14L821.719 17.75L824.062 29.4688L841.875 26.6562L862.031 21.9688L882.188 17.75L901.875 13.0625L922.031 9.78125L942.188 7.4375L962.344 6.03125H982.5H1002.66L1022.34 6.96875L1042.5 8.84375Z" fill="#8FADBF" fill-opacity="0.06125"/>
<path d="M688.594 1.8125L716.719 3.6875L744.844 5.5625L767.812 7.90625L765.469 19.1562L740.625 20.0938L711.562 17.2812L682.5 14.4688L652.969 11.1875L623.906 7.90625L594.844 5.5625L565.781 3.21875L536.719 1.34375L507.656 0.875L478.125 1.34375L448.594 3.6875L418.594 5.09375L387.656 8.84375L365.625 14.9375L379.688 30.875L407.812 26.6562L436.875 20.0938L465 14.4688L493.594 7.90625L521.719 3.6875L549.375 -0.0625L577.031 -1.9375L604.688 -2.40625L632.812 -1.46875L660.469 -0.53125L688.594 1.8125Z" fill="#8FADBF" fill-opacity="0.06125"/>
<path d="M1276.41 9.78125L1303.12 11.6562L1330.31 13.0625L1354.22 15.875L1358.91 26.1875L1337.34 27.5938L1310.62 24.7812L1283.44 21.9688L1256.25 18.6875L1228.59 15.875L1201.41 13.5312L1173.75 11.1875L1146.09 9.78125L1118.44 8.84375L1091.25 9.78125L1063.59 11.6562L1035.94 13.0625L1008.28 16.8125L984.844 22.4375L984.375 37.9062L1006.88 33.6875L1033.59 27.125L1060.31 21.9688L1087.03 15.4062L1113.75 11.1875L1140.94 7.90625L1167.66 6.5L1194.84 6.03125L1222.03 6.5L1249.22 7.90625L1276.41 9.78125Z" fill="#8FADBF" fill-opacity="0.06125"/>
<path d="M226.406 39.3125L233.906 39.7812L241.875 40.25L247.5 41.1875L245.156 44L238.125 44.4688L229.688 44L221.719 43.0625L213.75 42.125L206.25 41.1875L198.281 40.7188L190.312 40.25L182.812 39.7812L174.844 39.3125L166.875 39.7812L158.906 40.25L150.469 40.7188L142.031 41.6562L136.406 43.0625L142.031 47.2812L150 46.3438L157.969 44.4688L165.938 43.0625L173.906 41.1875L181.406 39.7812L188.906 38.8438L196.406 38.375H203.906H211.406L218.906 38.8438L226.406 39.3125Z" fill="#8FADBF" fill-opacity="0.06125"/>
<path d="M372.656 2.75L399.375 4.625L426.094 6.5L446.719 8.84375L440.625 19.1562L415.781 20.5625L387.656 17.75L359.531 14.9375L331.875 11.6562L303.75 8.84375L276.094 6.5L248.438 4.15625L220.781 2.75L193.125 1.8125L165 2.75L136.406 4.625L107.812 6.03125L77.3438 9.78125L57.6562 14.9375L77.8125 30.875L106.875 26.6562L134.531 20.0938L161.719 14.9375L188.906 8.84375L215.625 4.625L241.875 1.34375L267.656 -0.53125L293.906 -1L319.688 -0.53125L346.406 0.875L372.656 2.75Z" fill="#8FADBF" fill-opacity="0.06125"/>
<path d="M247.5 -2.40625L284.062 0.40625L321.094 2.28125L349.219 6.03125L339.375 20.0938L304.219 21.9688L264.844 17.75L225.469 14L186.562 9.78125L147.656 6.03125L108.75 2.28125L70.3125 -0.53125L31.875 -2.875L0 -3.8125V-2.875V-0.0625V1.8125V6.96875V14.4688V36.0312V30.4062V21.9688V14.4688V5.5625L31.875 -0.0625L67.9688 -4.28125L103.594 -7.09375L139.219 -7.5625L174.844 -6.625L210.938 -5.21875L247.5 -2.40625Z" fill="#8FADBF" fill-opacity="0.06125"/>
<path d="M1561.88 -11.7812L1602.19 -8.96875L1642.03 -6.625L1678.59 -2.875L1691.25 12.125L1661.72 14L1622.34 9.78125L1582.03 5.5625L1541.72 0.875L1500.94 -3.34375L1460.16 -7.09375L1418.91 -10.375L1377.66 -12.7188L1336.88 -13.6562L1295.62 -12.7188L1254.84 -9.4375L1214.06 -8.03125L1173.28 -2.40625L1137.66 6.03125L1131.56 29.4688L1162.5 23.375L1201.88 14L1241.25 6.03125L1280.62 -3.34375L1320.47 -9.4375L1360.31 -14.125L1400.62 -16.9375L1440.94 -17.4062L1481.25 -16.4688L1522.03 -15.0625L1561.88 -11.7812Z" fill="#8FADBF" fill-opacity="0.06125"/>
<path d="M1165.31 31.8125L1215 35.5625L1264.69 38.375L1308.28 43.0625L1315.78 63.2188L1275.94 66.0312L1225.31 60.4062L1174.22 55.7188L1122.66 49.625L1071.09 44.4688L1019.53 39.7812L967.5 35.5625L915.469 32.75L863.906 31.3438L811.406 32.75L758.906 36.9688L705.938 38.8438L652.031 46.3438L610.312 56.6562L624.844 83.8438L671.25 75.4062L720.938 63.6875L770.625 53.8438L819.844 42.125L869.062 34.625L917.812 28.5312L967.031 25.25L1016.72 24.7812L1065.94 25.7188L1115.62 28.0625L1165.31 31.8125Z" fill="#8FADBF" fill-opacity="0.06125"/>
<path d="M1397.81 50.5625L1438.12 53.375L1478.44 55.7188L1514.53 59.4688L1524.38 76.3438L1492.97 78.2188L1453.12 74L1412.34 70.25L1371.09 65.5625L1330.31 61.3438L1288.59 57.5938L1247.34 54.3125L1205.62 51.9688L1163.91 51.0312L1122.66 51.9688L1080.94 55.25L1039.22 57.125L997.5 63.2188L962.344 71.1875L961.875 92.75L995.625 85.7188L1035.47 76.3438L1075.31 68.375L1115.16 58.5312L1155 52.4375L1195.31 47.75L1235.62 44.9375L1275.94 44.4688L1316.72 45.4062L1357.03 47.2812L1397.81 50.5625Z" fill="#8FADBF" fill-opacity="0.06125"/>
<path d="M1628.44 30.4062L1634.53 30.875L1640.62 31.3438L1646.25 31.8125L1647.66 34.1562L1643.44 34.625L1637.34 33.6875L1631.72 33.2188L1625.62 32.75L1620 31.8125L1613.91 31.3438L1607.81 30.875H1601.72L1596.09 30.4062L1590 30.875L1584.38 31.3438H1578.28L1572.66 32.2812L1567.03 33.2188L1564.22 36.9688L1567.97 36.0312L1574.06 34.625L1579.69 33.2188L1585.78 31.8125L1591.88 30.875L1597.97 29.9375H1604.06L1610.16 29.4688L1616.25 29.9375H1622.34L1628.44 30.4062Z" fill="#8FADBF" fill-opacity="0.06125"/>
<path d="M1485.94 34.625L1496.72 35.0938L1507.5 36.0312L1516.88 36.9688L1519.22 41.1875L1511.25 41.6562L1500.94 40.25L1490.62 39.3125L1480.31 38.375L1469.53 36.9688L1459.22 36.0312L1448.44 35.0938L1437.66 34.625H1427.34H1416.56L1406.25 35.5625L1395.94 36.0312L1385.62 37.4375L1376.25 39.7812L1372.5 45.4062L1380 44L1390.31 41.1875L1400.62 39.3125L1411.41 36.5L1421.72 35.0938L1432.5 33.6875L1443.28 33.2188L1454.06 32.75L1464.84 33.2188L1475.62 33.6875L1485.94 34.625Z" fill="#8FADBF" fill-opacity="0.06125"/>
<path d="M853.125 49.625L899.531 52.9062L945.938 55.7188L985.312 59.9375L985.781 79.625L945.469 81.9688L897.656 77.2812L848.906 72.5938L800.625 66.9688L751.875 62.2812L703.594 57.5938L654.844 53.8438L606.094 51.0312L557.344 50.0938L508.125 51.5L458.438 55.25L408.281 57.125L356.25 64.1562L319.219 73.5312L344.062 98.375L390.938 90.4062L438.75 79.625L485.156 70.25L531.562 59L577.5 51.9688L623.438 46.3438L668.906 43.5312L714.844 42.5938L760.781 44L806.719 45.875L853.125 49.625Z" fill="#8FADBF" fill-opacity="0.06125"/>
<path d="M1358.44 52.9062L1407.66 56.6562L1456.41 59.4688L1500.47 64.1562L1512.19 84.7812L1474.22 87.5938L1424.53 82.4375L1374.84 77.2812L1324.69 71.6562L1274.06 66.5L1223.44 61.8125L1172.34 58.0625L1121.25 54.7812L1070.16 53.8438L1019.53 55.25L967.969 59L916.406 61.3438L864.375 68.8438L822.188 78.6875L827.812 104.469L870.469 96.0312L919.219 84.3125L967.5 74.9375L1016.25 63.2188L1064.53 55.7188L1113.28 49.625L1162.03 46.8125L1210.78 45.875L1260 47.2812L1309.22 49.1562L1358.44 52.9062Z" fill="#8FADBF" fill-opacity="0.06125"/>
<path d="M236.719 -24.4375L274.219 -21.625L311.719 -19.75L340.781 -16.4688L330.469 -1.9375L294.375 -0.53125L254.062 -4.28125L214.219 -8.5L173.906 -12.7188L134.531 -16.9375L94.6875 -20.2188L55.3125 -23.5L15.9375 -25.8438L0 -26.7812V-25.8438V-23.0312V-21.1562V-16V-8.03125V14.4688V8.84375V0.40625V-7.09375V-16L16.875 -22.0938L53.4375 -26.3125L90 -29.125L126.094 -29.5938L162.656 -29.125L199.688 -27.25L236.719 -24.4375Z" fill="#8FADBF" fill-opacity="0.06125"/>
<path d="M686.719 11.6562L705.469 13.0625L724.219 14.4688L739.219 15.875L737.344 23.375L720.938 24.3125L701.719 21.9688L682.969 20.0938L663.75 18.2188L644.531 16.3438L625.781 14.4688L606.562 13.0625L587.812 11.6562H568.594L549.375 12.125L530.156 13.5312L510.938 14L490.781 16.8125L476.25 20.5625L483.75 31.3438L502.031 28.5312L520.781 23.8438L539.531 20.0938L558.281 15.875L576.562 13.0625L594.844 10.7188L613.594 9.3125H631.875L650.156 9.78125L668.438 10.25L686.719 11.6562Z" fill="#8FADBF" fill-opacity="0.06125"/>
<path d="M407.812 73.5312L453.75 77.2812L500.625 79.625L537.188 84.3125L528.281 104.469L485.156 106.812L435.469 102.125L386.25 97.4375L336.562 92.2812L287.344 87.125L238.125 82.9062L189.375 79.1562L140.156 76.3438L90.9375 75.4062L40.7812 76.8125L0 80.5625V82.9062V89.9375V99.3125V122.75V114.781V103.531L42.1875 94.1562L89.0625 83.375L135 75.875L180.469 70.25L225.469 67.4375L270.469 66.9688L315.938 67.9062L361.406 70.25L407.812 73.5312Z" fill="#8FADBF" fill-opacity="0.06125"/>
<path d="M1789.22 51.0312L1796.72 51.5L1804.22 51.9688L1811.25 52.9062L1813.59 55.7188L1808.44 56.1875L1801.41 55.25L1794.38 54.7812L1787.34 53.8438L1779.84 52.9062L1772.81 52.4375L1765.31 51.9688L1757.81 51.5L1750.78 51.0312L1743.28 51.5L1736.25 51.9688L1729.22 52.4375L1722.19 53.375L1715.62 54.7812L1710.94 59L1715.16 57.5938L1722.19 55.7188L1729.69 54.3125L1736.72 52.4375L1744.22 51.5L1751.72 50.5625L1759.22 50.0938H1766.72H1774.22L1781.72 50.5625L1789.22 51.0312Z" fill="#8FADBF" fill-opacity="0.06125"/>
<path d="M847.5 62.2812L881.25 64.625L915 66.5L943.125 69.7812V83.8438L914.062 85.7188L879.375 82.4375L844.688 79.1562L809.531 74.9375L774.844 71.6562L739.688 68.375L705 65.5625L669.844 63.6875L634.688 62.75L599.531 63.6875L563.906 66.5L528.281 67.9062L491.719 73.0625L464.062 80.0938L478.125 97.9062L511.406 91.8125L545.625 83.8438L579.375 77.2812L613.125 69.3125L646.875 63.6875L680.156 59.9375L713.438 57.5938L746.719 57.125L780.469 58.0625L813.75 59.4688L847.5 62.2812Z" fill="#8FADBF" fill-opacity="0.06125"/>
<path d="M1920 -25.8438V-23.5V-21.625V-18.3438V-4.75V-3.34375V-7.09375V-10.8438V-15.0625L1897.5 -18.8125L1861.88 -22.0938L1825.78 -25.375L1789.69 -27.25L1753.59 -28.1875L1717.97 -27.25L1682.81 -24.4375L1647.66 -23.0312L1613.44 -18.3438L1579.69 -10.8438L1561.41 10.7188L1584.38 5.5625L1618.59 -2.875L1653.28 -9.90625L1687.5 -18.3438L1723.12 -23.5L1758.75 -27.7188L1794.84 -30.5312L1830.94 -31L1867.5 -30.0625L1903.59 -28.6562L1920 -25.8438Z" fill="#8FADBF" fill-opacity="0.06125"/>
<path d="M621.562 -7.09375L634.688 -6.15625L647.812 -5.21875L658.594 -4.28125L656.719 0.875L645 1.34375L631.406 -0.0625L617.812 -1.46875L604.688 -2.875L591.094 -4.28125L577.5 -5.6875L564.375 -6.625L550.781 -7.09375L537.188 -7.5625L524.062 -7.09375L510.469 -6.15625L496.406 -5.6875L482.344 -3.8125L472.031 -1L477.656 6.5L490.312 4.625L503.906 1.8125L517.031 -1L530.625 -4.28125L543.281 -6.15625L556.406 -8.03125L569.531 -8.5L582.656 -8.96875L595.312 -8.5L608.438 -8.03125L621.562 -7.09375Z" fill="#8FADBF" fill-opacity="0.06125"/>
<path d="M728.906 11.6562L772.031 14.9375L815.625 17.2812L851.719 21.5L849.375 38.8438L811.406 40.7188L765.938 36.5L720.469 31.8125L675 26.6562L629.062 21.9688L583.594 17.75L538.125 14.4688L492.656 11.6562L447.188 10.7188L400.781 11.6562L354.375 15.4062L307.031 17.2812L258.281 23.375L224.062 32.75L250.781 57.125L296.25 50.0938L340.781 40.25L384.844 31.3438L428.438 21.0312L471.562 14.4688L514.219 9.3125L556.875 6.5L599.531 5.5625L642.188 6.5L685.312 8.375L728.906 11.6562Z" fill="#8FADBF" fill-opacity="0.06125"/>
<path d="M1360.78 -10.8438L1384.69 -8.96875L1408.59 -8.03125L1429.69 -5.6875L1434.38 3.21875L1416.09 4.15625L1392.66 1.8125L1368.75 -0.53125L1344.84 -3.34375L1320.94 -5.6875L1297.03 -8.03125L1272.66 -9.90625L1248.75 -11.3125L1224.38 -11.7812L1200.47 -11.3125L1176.56 -9.4375L1152.19 -8.5L1128.75 -5.21875L1107.66 -0.53125L1104.84 13.5312L1123.59 10.25L1147.03 4.625L1170.47 -0.0625L1193.91 -5.6875L1217.81 -9.4375L1241.25 -12.25L1265.16 -13.6562L1289.06 -14.125L1312.97 -13.6562L1336.88 -12.7188L1360.78 -10.8438Z" fill="#8FADBF" fill-opacity="0.06125"/>
<path d="M1773.28 19.1562L1781.25 19.625L1788.75 20.0938L1795.78 21.0312L1798.59 23.8438L1793.44 24.3125L1785.94 23.375L1778.44 22.4375L1770.94 21.9688L1763.44 21.0312L1755.47 20.0938L1747.97 19.625L1740.47 19.1562H1732.5H1725L1717.5 19.625L1710 20.0938L1702.97 21.0312L1695.94 22.9062L1691.25 27.125L1695.94 25.7188L1703.44 24.3125L1710.94 22.4375L1718.44 20.5625L1725.94 19.625L1733.91 18.6875L1741.88 18.2188H1749.84H1757.81L1765.31 18.6875L1773.28 19.1562Z" fill="#8FADBF" fill-opacity="0.06125"/>
<path d="M697.5 45.4062L730.781 48.2188L764.062 50.0938L790.781 53.375L788.438 66.9688L759.375 68.375L724.688 65.0938L690 61.8125L655.781 58.0625L621.094 54.3125L586.875 51.5L552.188 48.6875L517.969 46.8125L483.281 45.875L448.594 46.8125L413.438 49.625L377.812 51.0312L341.25 55.7188L315 62.2812L332.812 80.5625L366.562 74.9375L400.781 66.9688L434.531 60.4062L467.812 52.4375L500.625 47.2812L533.438 43.5312L566.25 41.1875L598.594 40.7188L631.406 41.6562L664.219 43.0625L697.5 45.4062Z" fill="#8FADBF" fill-opacity="0.06125"/>
<path d="M519.844 -6.625L555 -3.8125L590.156 -1.9375L618.281 1.34375L613.125 14.9375L580.781 16.3438L543.75 12.5938L507.188 9.3125L470.156 5.09375L433.125 1.34375L396.562 -1.9375L360 -5.21875L323.438 -7.09375L286.406 -8.03125L249.375 -7.09375L211.406 -4.28125L173.438 -2.875L133.594 2.28125L106.875 9.3125L131.719 29.9375L169.688 24.7812L206.25 16.3438L241.875 9.78125L277.5 1.34375L312.188 -4.28125L346.875 -8.5L381.562 -10.8438L415.781 -11.3125L450.469 -10.8438L485.156 -8.96875L519.844 -6.625Z" fill="#8FADBF" fill-opacity="0.06125"/>
</g>
<defs>
<linearGradient id="paint0_linear_889_10862" x1="0" y1="-871" x2="0" y2="141.5" gradientUnits="userSpaceOnUse">
<stop stop-color="#112266"/>
<stop offset="0.3" stop-color="#3F5B80"/>
<stop offset="0.7" stop-color="#A09994"/>
<stop offset="0.95" stop-color="#013857"/>
</linearGradient>
<clipPath id="clip0_889_10862">
<rect width="1920" height="72" fill="white"/>
</clipPath>
</defs>
</svg>
