<?xml version="1.0" encoding="UTF-8"?>
<svg width="1em" height="1em" viewBox="0 0 16 16" version="1.1"
    xmlns="http://www.w3.org/2000/svg"
    xmlns:xlink="http://www.w3.org/1999/xlink">
    <title>next</title>
    <g id="页面-1" stroke="none" stroke-width="1" fill="none" fill-rule="evenodd">
        <g id="Blocks" transform="translate(-1218.000000, -965.000000)">
            <g id="-mockplus-" transform="translate(40.000000, 959.000000)">
                <g id="编组-10备份" transform="translate(936.000000, 0.000000)">
                    <g id="编组-9" transform="translate(236.000000, 0.000000)">
                        <g id="编组" transform="translate(6.000000, 6.000000)">
                            <rect id="矩形" x="0" y="0" width="16" height="16"></rect>
                            <path d="M11.4142136,4 L15.4142136,8 L11.4142136,12 C11.0236893,12.3905243 10.3905243,12.3905243 10,12 C9.60946205,11.609462 9.60942424,10.9762866 9.99991555,10.585702 L11.584,8.99910678 L1,9 C0.44771525,9 1.76747506e-13,8.55228475 1.76747506e-13,8 C1.76747506e-13,7.44771525 0.44771525,7 1,7 L11.584,6.99910678 L9.99991555,5.41429801 C9.60942424,5.02371342 9.60946205,4.39053795 10,4 C10.3905243,3.60947571 11.0236893,3.60947571 11.4142136,4 Z" id="路径" fill="currentColor" opacity="var(--arrow-icon-opacity)"></path>
                        </g>
                    </g>
                </g>
            </g>
        </g>
    </g>
</svg>