<svg t="1669682274039" viewBox="0 0 1024 1024" version="1.1" xmlns="http://www.w3.org/2000/svg" p-id="1418" width="32" height="32" xmlns:xlink="http://www.w3.org/1999/xlink">
  <path d="M67.114667 566.613333l-2.645334-3.242666a75.776 75.776 0 0 1-3.242666-98.901334l5.930666-7.082666c64-75.989333 236.330667-252.330667 444.245334-252.330667s379.733333 176.341333 444.16 252.330667l2.730666 2.901333a73.813333 73.813333 0 0 1 0.256 103.082667c-1.237333 1.493333-3.498667 3.754667-6.186666 7.168-175.658667 205.184-336.682667 248.32-441.002667 248.32-207.914667 0-380.074667-176.341333-444.245333-252.245334z m48.597333-67.84l-2.432 2.688c-2.517333 4.48-7.168 13.354667-2.986667 17.493334 0.768 0.768 2.730667 2.986667 5.418667 6.186666 58.752 69.077333 214.570667 229.674667 395.648 229.674667 90.752 0 232.576-38.997333 392.533333-225.92l7.594667-8.917333c6.656-7.168 3.498667-12.586667 0.981333-15.018667-0.768-0.768-2.645333-2.986667-5.418666-6.186667-58.666667-69.077333-214.570667-229.930667-395.562667-229.930666s-337.024 160.853333-395.776 229.930666z m218.325333 13.098667a177.834667 177.834667 0 1 1 177.834667 177.834667 177.877333 177.877333 0 0 1-177.834667-177.877334z m32.981334 0a22.954667 22.954667 0 0 0 45.909333 0 99.072 99.072 0 0 1 98.901333-98.901333 22.954667 22.954667 0 0 0 0-45.909334 145.066667 145.066667 0 0 0-144.810666 144.768z" p-id="1419"></path>
</svg>