<?xml version="1.0" standalone="no"?><!DOCTYPE svg PUBLIC "-//W3C//DTD SVG 1.1//EN" "http://www.w3.org/Graphics/SVG/1.1/DTD/svg11.dtd"><svg t="1663237788467" class="icon" viewBox="0 0 1024 1024" version="1.1" xmlns="http://www.w3.org/2000/svg" p-id="5176" xmlns:xlink="http://www.w3.org/1999/xlink" width="200" height="200"><path d="M494.5 759.5c-64.5 0-125.1-25.1-170.7-70.7-45.6-45.6-70.7-106.2-70.7-170.7s25.1-125.1 70.7-170.7c45.6-45.6 106.2-70.7 170.7-70.7s125.1 25.1 170.7 70.7c45.6 45.6 70.7 106.2 70.7 170.7s-25.1 125.1-70.7 170.7c-45.6 45.6-106.2 70.7-170.7 70.7z m0-468.6c-125.4 0-227.3 102-227.3 227.3s102 227.3 227.3 227.3 227.3-102 227.3-227.3-101.9-227.3-227.3-227.3z" fill="#0F13AE" p-id="5177"></path><path d="M494.5 461.4m-115.8 0a115.8 115.8 0 1 0 231.6 0 115.8 115.8 0 1 0-231.6 0Z" fill="#B6F5FF" p-id="5178"></path><path d="M494.5 584.2c-67.7 0-122.8-55.1-122.8-122.8 0-67.7 55.1-122.8 122.8-122.8 67.7 0 122.8 55.1 122.8 122.8 0 67.7-55.1 122.8-122.8 122.8z m0-231.5c-60 0-108.8 48.8-108.8 108.8s48.8 108.8 108.8 108.8 108.8-48.8 108.8-108.8-48.8-108.8-108.8-108.8z" fill="#0F13AE" p-id="5179"></path><path d="M692.6 643.1c-30.1-21.9-67.8-38.9-110.3-48.8-25.5 15.9-55.4 25.3-87.7 25.3-32.2 0-62.2-9.4-87.7-25.3-42.5 9.9-80.2 26.9-110.3 48.8 41.5 65.7 114.6 109.4 198 109.4s156.4-43.7 198-109.4z" fill="#B6F5FF" p-id="5180"></path><path d="M494.5 759.5c-41.4 0-82.3-10.7-118.2-31-34.7-19.6-64.4-47.9-85.8-81.7l-3.5-5.5 5.3-3.9c31.3-22.8 70.4-40.1 112.9-50l2.8-0.7 2.5 1.5c25.3 15.8 54.3 24.2 84 24.2 29.6 0 58.6-8.4 84-24.2l2.5-1.5 2.8 0.7c42.5 9.9 81.5 27.2 112.9 50l5.3 3.9-3.5 5.5c-21.4 33.8-51 62.1-85.8 81.7-35.9 20.3-76.7 31-118.2 31zM306.1 645c42.5 63.1 112.4 100.6 188.5 100.6s146-37.5 188.5-100.6c-28.2-19.3-62.4-34.2-99.6-43.2-26.9 16.2-57.6 24.8-88.9 24.8-31.3 0-61.9-8.6-88.9-24.8-37.2 9-71.5 23.8-99.6 43.2zM783.2 491.9l-2.1-13.6c-20.7-133.6-133.7-236.9-268.6-245.8l-2.6-0.2-45.3-45.3 47.5-47.5 3.1 0.2C698.1 150 848.8 289.2 873.7 470.6l2.8 20.6-46.3-46.3-47 47zM516 218.7c68.2 5.1 133.4 33.3 183.8 79.7 47.5 43.6 80.1 101.6 92.7 164.3l37.6-37.6 26 26C823.9 287.9 685 164.7 517.4 153.8l-33 33.2 31.6 31.7z" fill="#0F13AE" p-id="5181"></path><path d="M156.1 552.6l-46.8-46.8 0.2-3.1c9.6-183.7 148.8-335.1 331-360.1l20.6-2.8L414 187l46.3 46.3-13.5 2.2C314 256.7 211.3 369.6 202.5 503.8l-0.2 2.6-46.2 46.2z m-32.4-52.2l32.4 32.4 32.5-32.5c2.5-34.1 10.7-67.2 24.2-98.5 13.5-31.1 32-59.7 55-84.8 43.4-47.4 101-80 163.4-92.9l-37-37.1 26.9-26.9C257.2 192.4 133.9 332 123.7 500.4z" fill="#49A3FE" p-id="5182"></path><path d="M475.9 907l-3.1-0.2c-182.7-9.6-334-147.9-359.8-329l-3-20.8 46.2 46.2 47.2-47.2 2.2 13.5c21.4 134 131 234.5 266.5 244.2l2.6 0.2 47.1 47.1-45.9 46zM130.5 597.3C163.6 760.1 303 882.5 470.4 892.6L502 861l-33.6-33.6c-33.9-2.7-66.8-11-97.9-24.6-30.9-13.6-59.2-32.1-84.2-55.1-47-43.3-79.4-100.7-92.3-162.8L156.1 623l-25.6-25.7z" fill="#0F13AE" p-id="5183"></path><path d="M527 906.4l45.3-45.3-47.8-47.8 13.6-2.1c132.7-20.5 236-132.7 245.6-266.8l0.2-2.6 46.3-46.3 46.6 46.6-0.2 3.1c-2.5 45-12.8 88.7-30.6 129.9-17.2 39.9-41 76.5-70.6 108.5-59.8 64.9-140.7 107.4-227.7 119.8l-20.7 3z m26.6-83.8l38.5 38.5-24.8 24.8c162.1-33 284.3-171.7 295.2-338.3l-32.3-32.3-32.7 32.7c-2.7 34-11.1 67.1-24.8 98.2-13.7 31-32.3 59.4-55.4 84.4-43.5 47-101.3 79.4-163.7 92z" fill="#49A3FE" p-id="5184"></path><path d="M527.1 192.9v-14.1" fill="#B6F5FF" p-id="5185"></path><path d="M520.1 178.8h14v14.1h-14z" fill="#0F13AE" p-id="5186"></path><path d="M456.3 866.7v-14.2" fill="#B6F5FF" p-id="5187"></path><path d="M449.3 852.5h14v14.1h-14z" fill="#0F13AE" p-id="5188"></path><path d="M829.7 570.6v-14.1M822.7 556.5h14v14.1h-14z" fill="#49A3FE" p-id="5189"></path><path d="M153.4 491.3v-14.1M146.4 477.2h14v14.1h-14z" fill="#49A3FE" p-id="5190"></path></svg>