<svg width="375" height="375" viewBox="0 0 375 375" fill="none" xmlns="http://www.w3.org/2000/svg">
<path fill-rule="evenodd" clip-rule="evenodd" d="M187.878 302.4C156.419 302.4 126.862 290.158 104.621 267.917C82.3795 245.676 70.1372 216.118 70.1372 184.659C70.1372 153.2 82.3795 123.643 104.621 101.402C126.862 79.1605 156.419 66.9182 187.878 66.9182C219.337 66.9182 248.895 79.1605 271.136 101.402C293.377 123.643 305.619 153.2 305.619 184.659C305.619 216.118 293.377 245.676 271.136 267.917C248.895 290.158 219.337 302.4 187.878 302.4V302.4ZM187.878 73.8441C126.715 73.8441 77.0144 123.594 77.0144 184.708C77.0144 245.822 126.764 295.572 187.878 295.572C248.992 295.572 298.742 245.822 298.742 184.708C298.742 123.594 249.041 73.8441 187.878 73.8441V73.8441Z" fill="#BDC5D1"/>
<path d="M147.932 117.058C158.516 106.474 172.905 100.524 187.878 100.524C202.852 100.524 217.241 106.474 227.825 117.058C238.409 127.642 244.359 142.03 244.359 157.004C244.359 171.978 238.409 186.366 227.825 196.95C217.241 207.534 202.852 213.485 187.878 213.485C172.905 213.485 158.516 207.534 147.932 196.95C137.348 186.366 131.398 171.978 131.398 157.004C131.398 142.03 137.348 127.642 147.932 117.058Z" fill="#3598DB"/>
<path fill-rule="evenodd" clip-rule="evenodd" d="M187.878 216.899C154.858 216.899 127.983 190.024 127.983 157.004C127.983 123.984 154.858 97.1094 187.878 97.1094C220.898 97.1094 247.773 123.984 247.773 157.004C247.773 190.024 220.898 216.899 187.878 216.899V216.899ZM187.878 103.987C158.614 103.987 134.812 127.788 134.812 157.053C134.812 186.317 158.614 210.119 187.878 210.119C217.143 210.119 240.944 186.317 240.944 157.053C240.944 127.788 217.143 103.987 187.878 103.987Z" fill="white"/>
<path d="M187.927 298.986C147.249 298.986 111.595 277.671 91.354 245.627C106.035 234.945 124.423 226.654 145.152 221.825C157.589 229.58 172.222 234.165 187.927 234.165C203.681 234.165 218.264 229.58 230.702 221.825C251.431 226.654 269.819 234.945 284.5 245.627C264.21 277.671 228.605 298.986 187.927 298.986Z" fill="#3498DB"/>
<path fill-rule="evenodd" clip-rule="evenodd" d="M187.878 302.4C167.686 302.4 147.737 297.181 130.227 287.28C113.303 277.72 98.8167 263.917 88.379 247.431L86.6719 244.749L89.2569 242.847C104.523 231.726 123.594 223.288 144.323 218.46L145.689 218.118L146.908 218.85C159.248 226.556 173.392 230.653 187.878 230.653C202.315 230.653 216.46 226.556 228.849 218.85L230.068 218.118L231.434 218.46C252.163 223.288 271.185 231.726 286.5 242.847L289.085 244.749L287.378 247.431C276.94 263.917 262.503 277.72 245.529 287.28C228.02 297.181 208.12 302.4 187.878 302.4ZM95.9877 246.554C116.717 277.33 150.81 295.62 187.927 295.62C225.044 295.62 259.137 277.33 279.866 246.554C266.112 237.14 249.431 229.873 231.287 225.483C218.167 233.385 203.193 237.579 187.927 237.579C172.661 237.579 157.736 233.385 144.567 225.483C126.423 229.873 109.693 237.091 95.9877 246.554ZM328.689 171.88L327.665 165.247C317.569 100.085 262.454 49.7009 196.658 45.36L195.39 45.2625L173.295 23.1677L196.463 0L197.975 0.0975484C287.183 5.12129 360.685 73.015 372.83 161.491L374.196 171.539L351.613 148.956L328.689 171.88ZM198.365 38.6292C231.629 41.1166 263.43 54.871 288.012 77.5022C311.18 98.7677 327.08 127.057 333.225 157.638L351.565 139.299L364.246 151.98C348.541 72.3809 280.793 12.2911 199.048 6.97471L182.952 23.1677L198.365 38.6292Z" fill="#BDC5D1"/>
<path fill-rule="evenodd" clip-rule="evenodd" d="M22.8263 201.486L0 178.66L0.0975483 177.148C4.77987 87.5497 72.6736 13.7055 161.54 1.51198L171.588 0.146301L148.615 23.1677L171.197 45.7502L164.613 46.8232C99.8408 57.1633 49.7497 112.229 45.4576 177.684L45.36 178.953L22.8263 201.486ZM7.02348 176.026L22.8263 191.829L38.6779 175.977C39.8973 159.345 43.8968 143.201 50.4813 127.935C57.0658 112.766 66.089 98.8165 77.3071 86.5742C98.4751 63.4552 126.569 47.5548 157.004 41.2629L138.958 23.1677L152.078 10.0475C72.1371 25.8015 11.9985 93.8903 7.02348 176.026V176.026Z" fill="#49A3FE"/>
<path fill-rule="evenodd" clip-rule="evenodd" d="M178.806 374.342L177.294 374.244C88.1836 369.562 14.3883 302.107 1.80453 213.777L0.341309 203.632L22.875 226.166L45.8964 203.144L46.9694 209.729C57.4071 275.086 110.864 324.104 176.953 328.836L178.221 328.933L201.193 351.906L178.806 374.342ZM10.34 223.288C26.4843 302.693 94.4755 362.392 176.123 367.318L191.536 351.906L175.148 335.518C158.614 334.201 142.567 330.152 127.398 323.519C112.327 316.886 98.5238 307.863 86.3302 296.645C63.4063 275.525 47.6035 247.529 41.3116 217.24L22.8262 235.823L10.34 223.288Z" fill="#ACBFD2"/>
<path fill-rule="evenodd" clip-rule="evenodd" d="M203.73 374.049L225.825 351.955L202.511 328.641L209.144 327.616C273.867 317.618 324.251 262.893 328.933 197.487L329.031 196.219L351.613 173.636L374.342 196.365L374.245 197.877C373.025 219.825 368.002 241.14 359.32 261.235C350.931 280.696 339.322 298.547 324.885 314.155C295.718 345.809 256.26 366.538 213.826 372.586L203.73 374.049ZM216.704 333.177L235.482 351.955L223.386 364.051C302.449 347.955 362.051 280.305 367.368 199.048L351.613 183.293L335.664 199.243C334.347 215.826 330.25 231.97 323.568 247.139C316.886 262.259 307.814 276.111 296.547 288.304C275.331 311.228 247.139 327.031 216.704 333.177V333.177Z" fill="#49A3FE"/>
<path d="M200.364 19.1683H207.193V26.0454H200.364V19.1683Z" fill="#BDC5D1"/>
<path d="M165.833 347.76H172.661V354.637H165.833V347.76Z" fill="#BDC5D1"/>
<path fill-rule="evenodd" clip-rule="evenodd" d="M347.955 203.388H354.783V210.266H347.955V203.388ZM351.369 210.266V203.388Z" fill="#49A3FE"/>
<path fill-rule="evenodd" clip-rule="evenodd" d="M18.0952 164.711H24.9236V171.588H18.0952V164.711ZM21.5094 171.588V164.711Z" fill="#49A3FE"/>
</svg>
