<svg width="25" height="25" viewBox="0 0 25 25" fill="none" xmlns="http://www.w3.org/2000/svg">
<path d="M22.8334 17.3153L20.7942 18.9901L21.406 21.5025C21.457 21.6995 21.3805 21.8966 21.2021 22.0197C21.1256 22.0936 20.9982 22.1182 20.8962 22.1182C20.7942 22.1182 20.7178 22.0936 20.6413 22.0443L18.3728 20.6897L16.0787 22.0443C15.9003 22.1429 15.6709 22.1429 15.5179 22.0197C15.365 21.8966 15.263 21.6995 15.314 21.5025L15.9258 18.9901L13.8866 17.3153C13.7337 17.1921 13.6572 16.9704 13.7337 16.798C13.7847 16.601 13.9631 16.4778 14.167 16.4532L16.8434 16.2562L17.863 13.867C17.9394 13.6946 18.1179 13.5714 18.3218 13.5714C18.5257 13.5714 18.7041 13.6946 18.7806 13.867L19.8002 16.2562L22.4765 16.4532C22.6805 16.4778 22.8589 16.601 22.9099 16.798C23.0373 16.9704 22.9863 17.1675 22.8334 17.3153ZM14.167 8.96552C13.4278 9.90148 12.7396 10.8128 12.9435 12.9064C12.969 13.1773 13.2239 13.3744 13.5043 13.3498C13.7847 13.3251 13.9886 13.0788 13.9631 12.8079C13.8101 11.0837 14.2944 10.4433 15.0082 9.55665C15.263 9.21182 15.5689 8.81773 15.8493 8.34975C16.3081 7.53694 16.461 6.89655 16.2571 6.37931C16.1807 6.18227 16.0277 5.91133 15.7219 5.71429C16.0022 3.86699 15.6964 2.43842 14.8552 1.4532C14.0141 0.492611 12.6376 0 10.7769 0C8.91618 0 7.56524 0.492611 6.77507 1.4532C5.9849 2.41379 5.78098 3.84236 6.16332 5.71429C5.88294 5.8867 5.67903 6.133 5.55158 6.42857C5.34766 6.94581 5.47511 7.58621 5.93392 8.37438C6.2143 8.84236 6.57115 9.31034 6.90252 9.75369C7.94758 11.1084 8.53384 11.9951 7.8966 12.8571C7.28486 13.6946 6.82605 13.8177 5.85745 14.0394C5.14375 14.2365 4.22613 14.4581 2.97715 15.0739C0.836036 16.1084 -0.158051 18.3498 0.0203751 21.7241C0.0458645 21.9704 0.275269 22.1675 0.555653 22.1675H12.969C13.2494 22.1675 13.4788 21.9458 13.4788 21.6749C13.4788 21.4039 13.2494 21.1823 12.969 21.1823H1.03995C0.988973 18.4729 1.77914 16.7488 3.46145 15.936C4.63396 15.3695 5.47511 15.1478 6.13783 14.9754C7.13192 14.7291 7.92209 14.5074 8.73775 13.399C9.85929 11.8719 8.71226 10.4187 7.71818 9.13793C7.38682 8.69458 7.05545 8.27586 6.82605 7.88177C6.44371 7.21675 6.4692 6.89655 6.52018 6.74877C6.54566 6.69951 6.59664 6.55172 6.92801 6.42857C7.15741 6.33005 7.31035 6.08374 7.25937 5.86207C6.82605 4.1133 6.9535 2.85714 7.59073 2.06897C8.1515 1.35468 9.22205 0.985222 10.7769 0.985222C12.3318 0.985222 13.4533 1.35468 14.0905 2.0936C14.7787 2.88177 14.9827 4.16256 14.6768 5.8867C14.6258 6.10837 14.7533 6.33005 14.9827 6.42857C15.2376 6.52709 15.2885 6.62562 15.314 6.69951C15.365 6.82266 15.3905 7.16749 14.9827 7.85714C14.7023 8.30049 14.4219 8.64532 14.167 8.96552Z" fill="#BDC5D1"/>
<path d="M16.7723 13.9168C16.9614 13.1589 18.0386 13.1589 18.2277 13.9168L18.6687 15.6844C18.7574 16.0402 19.0905 16.2797 19.4561 16.2504L21.2354 16.1083C22.0368 16.0443 22.3636 17.1149 21.6632 17.5094L20.2382 18.312C19.8996 18.5027 19.7627 18.9205 19.9229 19.2746L20.6062 20.7848C20.932 21.5049 20.0661 22.1741 19.4514 21.6772L17.9715 20.4811C17.6964 20.2588 17.3036 20.2588 17.0285 20.4811L15.5486 21.6772C14.9339 22.1741 14.068 21.5049 14.3938 20.7848L15.0771 19.2746C15.2373 18.9205 15.1004 18.5027 14.7618 18.312L13.3368 17.5094C12.6364 17.1149 12.9632 16.0443 13.7646 16.1083L15.5439 16.2504C15.9095 16.2797 16.2426 16.0402 16.3313 15.6844L16.7723 13.9168Z" fill="#3598DB"/>
</svg>
