<svg width="156" height="158" viewBox="0 0 156 158" fill="none" xmlns="http://www.w3.org/2000/svg">
<path d="M86.1563 91.0781H119.672V93.8125H86.1563V91.0781ZM21.293 51.6641L7.64062 38.0117C6.82031 37.1914 6.82031 35.8438 7.64062 35.0234L29.8086 12.8359C30.6289 12.0156 31.9766 12.0156 32.7969 12.8359L46.4492 26.4883L21.293 51.6641ZM10.0039 36.5078L21.293 47.7969L42.6016 26.4883L31.3125 15.1992L10.0039 36.5078Z" fill="#3498DB"/>
<path d="M32.2642 38.7461L34.1978 36.8125L41.2823 43.8973L39.3487 45.8309L32.2642 38.7461ZM141.274 51.6641L116.098 26.4883L129.75 12.8359C130.57 12.0156 131.918 12.0156 132.738 12.8359L154.926 35.0234C155.746 35.8438 155.746 37.1914 154.926 38.0117L141.274 51.6641ZM119.965 26.4883L141.274 47.7969L152.563 36.5078L131.254 15.2187L119.965 26.4883Z" fill="#3498DB"/>
<path d="M121.266 43.9086L128.351 36.8239L130.284 38.7574L123.2 45.8422L121.266 43.9086Z" fill="#3498DB"/>
<path d="M62.6602 1.52734H96.9961V18.1875H62.6602V1.52734Z" fill="white"/>
<path d="M98.3633 19.5547H61.293V0.160156H98.3633V19.5547V19.5547ZM64.0273 16.8203H95.6289V2.89453H64.0273V16.8203V16.8203Z" fill="#BDC5D1"/>
<path d="M72.7188 6.48828V12.6016ZM71.3516 6.48828H74.0859V12.6016H71.3516V6.48828ZM79.8281 6.48828V12.6016ZM78.4609 6.48828H81.1953V12.6016H78.4609V6.48828Z" fill="#BDC5D1"/>
<path d="M86.918 6.48828V12.6016ZM85.5508 6.48828H88.2852V12.6016H85.5508V6.48828Z" fill="#BDC5D1"/>
<path d="M78.3085 41.3399L81.0429 41.326L81.0767 47.9471L78.3423 47.9608L78.3085 41.3399ZM53.4853 49.151L55.8464 47.7719L59.186 53.4893L56.8247 54.8684L53.4853 49.151ZM35.872 68.3361L37.2272 65.9611L42.9782 69.2424L41.6231 71.6176L35.872 68.3361ZM30.2124 91.0184L36.8335 90.9846L36.8474 93.719L30.2263 93.7528L30.2124 91.0184ZM36.6581 116.219L42.3753 112.879L43.7546 115.241L38.0372 118.58L36.6581 116.219ZM54.8333 134.815L58.1142 129.064L60.4892 130.419L57.2085 136.17L54.8333 134.815ZM79.871 135.228L82.6054 135.214L82.6392 141.835L79.9048 141.849L79.871 135.228ZM101.765 129.685L104.126 128.306L107.466 134.023L105.104 135.402L101.765 129.685ZM117.966 113.937L119.322 111.562L125.073 114.843L123.717 117.218L117.966 113.937ZM124.1 89.4559L130.721 89.4221L130.735 92.1565L124.114 92.1903L124.1 89.4559ZM117.194 67.9406L122.911 64.601L124.29 66.9621L118.573 70.302L117.194 67.9406ZM100.448 52.7363L103.729 46.9854L106.104 48.3403L102.823 54.0914L100.448 52.7363Z" fill="#9A9DA3"/>
<path d="M78.4609 18.1875H81.1953V31.0195H78.4609V18.1875Z" fill="#BDC5D1"/>
<path d="M80.5117 26.1367C44.5156 26.1367 15.3359 55.3164 15.3359 91.3125C15.3359 127.309 44.5156 156.488 80.5117 156.488C116.508 156.488 145.688 127.309 145.688 91.3125C145.707 55.3164 116.527 26.1367 80.5117 26.1367V26.1367ZM80.5117 142.289C52.3672 142.289 29.5547 119.477 29.5547 91.332C29.5547 63.1875 52.3672 40.375 80.5117 40.375C108.656 40.375 131.469 63.1875 131.469 91.332C131.488 119.477 108.676 142.289 80.5117 142.289Z" fill="white"/>
<path d="M80.5117 157.875C62.7383 157.875 46.0195 150.961 33.4609 138.383C20.8828 125.805 13.9688 109.105 13.9688 91.332C13.9688 73.5586 20.8828 56.8398 33.4609 44.2813C46.0391 31.7031 62.7383 24.7891 80.5117 24.7891C98.2852 24.7891 115.004 31.7031 127.563 44.2813C140.121 56.8594 147.055 73.5586 147.055 91.332C147.055 109.105 140.141 125.824 127.563 138.383C114.984 150.941 98.3047 157.875 80.5117 157.875ZM80.5117 27.5039C45.3164 27.5039 16.7031 56.1367 16.7031 91.3125C16.7031 126.488 45.3359 155.121 80.5117 155.121C115.707 155.121 144.32 126.488 144.32 91.3125C144.32 56.1367 115.707 27.5039 80.5117 27.5039ZM80.5117 143.656C66.5273 143.656 53.4023 138.207 43.5 128.324C33.6172 118.441 28.168 105.297 28.168 91.3125C28.168 77.3281 33.6172 64.2031 43.5 54.3008C53.3828 44.418 66.5273 38.9687 80.5117 38.9687C94.4961 38.9687 107.621 44.418 117.523 54.3008C127.406 64.1836 132.855 77.3281 132.855 91.3125C132.855 105.297 127.406 118.441 117.523 128.324C107.641 138.207 94.4961 143.656 80.5117 143.656ZM80.5117 41.7227C53.168 41.7227 30.9219 63.9687 30.9219 91.3125C30.9219 118.656 53.168 140.902 80.5117 140.902C107.855 140.902 130.102 118.656 130.102 91.3125C130.102 63.9687 107.875 41.7227 80.5117 41.7227Z" fill="#BDC5D1"/>
<path d="M81.0977 111.547C70.4141 111.547 61.7227 102.855 61.7227 92.1719C61.7227 81.4883 70.4141 72.7969 81.0977 72.7969V75.5312C71.918 75.5312 64.457 82.9922 64.457 92.1719C64.457 101.352 71.918 108.813 81.0977 108.813C90.2773 108.813 97.7383 101.352 97.7383 92.1719H100.473C100.473 102.855 91.7813 111.547 81.0977 111.547Z" fill="#BDC5D1"/>
<path d="M80.4531 99.4375C76.8008 99.4375 73.8125 96.4492 73.8125 92.7969C73.8125 89.1445 76.8008 86.1562 80.4531 86.1562C84.1055 86.1562 87.0938 89.1445 87.0938 92.7969C87.0938 96.4492 84.125 99.4375 80.4531 99.4375V99.4375ZM80.4531 88.9102C78.3047 88.9102 76.5469 90.668 76.5469 92.8164C76.5469 94.9648 78.3047 96.7227 80.4531 96.7227C82.6016 96.7227 84.3594 94.9648 84.3594 92.8164C84.3594 90.6484 82.6211 88.9102 80.4531 88.9102V88.9102Z" fill="#BDC5D1"/>
<path d="M10.6289 58.1875L8.14844 57.0352C8.94922 55.2969 9.82813 53.5781 10.7461 51.8984L13.1289 53.2266C12.25 54.8477 11.3906 56.5078 10.6289 58.1875Z" fill="#BDC5D1"/>
<path d="M3.89062 112.309C1.85937 105.219 0.824219 97.8359 0.824219 90.375C0.824219 81.7422 2.19141 73.2656 4.90625 65.1602L7.50391 66.0195C4.88672 73.8516 3.55859 82.0352 3.55859 90.3555C3.55859 97.543 4.55469 104.672 6.50781 111.527L3.89062 112.309V112.309Z" fill="#BDC5D1"/>
<path d="M155.063 101.117L152.348 100.785C152.641 98.4805 152.816 96.1172 152.875 93.793L155.609 93.8711C155.531 96.2734 155.355 98.7148 155.063 101.117V101.117Z" fill="#3498DB"/>
<path d="M152.68 85.3555C152.172 78.8711 150.805 72.4648 148.676 66.3125L151.254 65.4141C153.48 71.7813 154.867 78.4219 155.414 85.1406L152.68 85.3555Z" fill="#3498DB"/>
</svg>
