<svg width="25" height="25" viewBox="0 0 25 25" fill="none" xmlns="http://www.w3.org/2000/svg">
<path d="M1.07974 18.0805V7.62429L10.9054 12.7499V23.616L1.29569 18.388C1.18771 18.3368 1.07974 18.183 1.07974 18.0805ZM11.2293 1.06356C11.3373 1.0123 11.5532 1.0123 11.6072 1.06356L21.4868 6.54793L11.3912 11.8273L6.31647 9.18759L1.2417 6.54793L11.2293 1.06356ZM22.3505 5.83035L12.2011 0.192209C11.7692 -0.0640695 11.1753 -0.0640695 10.7434 0.192209L0.755817 5.67658C0.323922 5.93286 0 6.44541 0 6.90671V18.0805C0 18.5417 0.323922 19.0543 0.755817 19.3106L11.1753 24.9488C11.2833 25 11.3373 25 11.4452 25C11.6072 25 11.8231 24.8975 11.9311 24.7437C11.9851 24.6412 11.9851 24.59 11.9851 24.4874V12.7499L21.9727 7.52178V10.1358C21.9727 10.4434 22.1886 10.6484 22.5126 10.6484C22.8365 10.6484 23.0524 10.4434 23.0524 10.1358V7.06048C23.0524 6.59918 22.7285 6.03536 22.3505 5.83035ZM23.8623 17.0553V15.7739C23.8623 13.1087 21.7028 10.9047 19.0033 10.9047C16.304 10.9047 14.1445 13.0574 14.1445 15.7739V17.0553C13.5507 17.0553 13.0648 17.5167 13.0648 18.0805V23.7186C13.0648 24.2824 13.5507 24.7437 14.1445 24.7437H23.8623C24.4562 24.7437 24.942 24.2824 24.942 23.7186V18.0805C24.942 17.4654 24.4562 17.0553 23.8623 17.0553ZM14.1445 23.7186V18.0805H23.8623V23.7186H14.1445ZM15.2243 15.7227C15.2243 13.6213 16.8979 11.8785 19.0033 11.8785C21.109 11.8785 22.7825 13.5699 22.7825 15.7227V17.0041H19.0033H15.2243V15.7227ZM20.0832 20.387C20.0832 20.7457 19.8673 21.1045 19.5433 21.2583V22.4372C19.5433 22.7448 19.3273 22.9497 19.0033 22.9497C18.6795 22.9497 18.4635 22.7448 18.4635 22.4372V21.2583C18.1396 21.1045 17.9237 20.7457 17.9237 20.387C17.9237 19.8231 18.4095 19.3619 19.0033 19.3619C19.5973 19.3619 20.0832 19.7719 20.0832 20.387Z" fill="#BDC5D1"/>
<path d="M23.4492 10.9626H15.3743C15.0051 10.9626 14.7059 11.2619 14.7059 11.631V22.1925C14.7059 22.5617 15.0051 22.861 15.3743 22.861H23.4492C23.8184 22.861 24.1176 22.5617 24.1176 22.1925V11.631C24.1176 11.2619 23.8184 10.9626 23.4492 10.9626Z" fill="white"/>
<path d="M25 13.7701H12.5V25H25V13.7701Z" fill="white"/>
<path d="M20.6727 21.1038C22.5653 21.1038 24.0995 19.6555 24.0995 17.869C24.0995 16.0824 22.5653 14.6341 20.6727 14.6341C18.7801 14.6341 17.2459 16.0824 17.2459 17.869C17.2459 19.6555 18.7801 21.1038 20.6727 21.1038Z" fill="#3598DB"/>
<path d="M24.5328 18.0829H16.8956C16.7479 18.0829 16.6282 18.2026 16.6282 18.3503V24.1228C16.6282 24.2705 16.7479 24.3902 16.8956 24.3902H24.5328C24.6805 24.3902 24.8002 24.2705 24.8002 24.1228V18.3503C24.8002 18.2026 24.6805 18.0829 24.5328 18.0829Z" fill="#3598DB"/>
<path d="M20.934 19.2886H20.823C20.1954 19.2886 19.6866 19.7974 19.6866 20.425C19.6866 21.0526 20.1954 21.5614 20.823 21.5614H20.934C21.5616 21.5614 22.0704 21.0526 22.0704 20.425C22.0704 19.7974 21.5616 19.2886 20.934 19.2886Z" fill="white"/>
<path d="M21.5116 21.6994C21.5116 21.3703 21.2448 21.1035 20.9157 21.1035C20.5866 21.1035 20.3198 21.3703 20.3198 21.6994V22.458C20.3198 22.7871 20.5866 23.0539 20.9157 23.0539C21.2448 23.0539 21.5116 22.7871 21.5116 22.458V21.6994Z" fill="white"/>
</svg>
