<svg width="187" height="187" viewBox="0 0 187 187" fill="none" xmlns="http://www.w3.org/2000/svg">
<path d="M8.07643 135.242V57.0297L81.5721 95.369V176.648L9.69172 137.542C8.88407 137.159 8.07643 136.009 8.07643 135.242ZM83.9951 7.95541C84.8027 7.57201 86.418 7.57201 86.8218 7.95541L160.721 48.9785L85.2065 88.468L47.2472 68.7232L9.28789 48.9785L83.9951 7.95541ZM167.182 43.611L91.2639 1.43772C88.0333 -0.479241 83.5912 -0.479241 80.3607 1.43772L5.65349 42.4608C2.42291 44.3778 -2.30819e-05 48.2117 -2.30819e-05 51.6622V135.242C-2.30819e-05 138.692 2.42291 142.526 5.65349 144.443L83.5912 186.617C84.3989 187 84.8027 187 85.6103 187C86.8218 187 88.4371 186.233 89.2447 185.083C89.6486 184.316 89.6486 183.933 89.6486 183.166V95.369L164.356 56.2629V75.816C164.356 78.1163 165.971 79.6499 168.394 79.6499C170.817 79.6499 172.432 78.1163 172.432 75.816V52.8124C172.432 49.3619 170.009 45.1445 167.182 43.611ZM178.49 127.574V117.989C178.49 98.0528 162.337 81.5669 142.145 81.5669C121.954 81.5669 105.801 97.6694 105.801 117.989V127.574C101.359 127.574 97.725 131.025 97.725 135.242V177.415C97.725 181.632 101.359 185.083 105.801 185.083H178.49C182.932 185.083 186.566 181.632 186.566 177.415V135.242C186.566 130.641 182.932 127.574 178.49 127.574ZM105.801 177.415V135.242H178.49V177.415H105.801ZM113.878 117.606C113.878 101.887 126.396 88.8514 142.145 88.8514C157.895 88.8514 170.413 101.503 170.413 117.606V127.191H142.145H113.878V117.606ZM150.222 152.495C150.222 155.178 148.607 157.862 146.184 159.012V167.83C146.184 170.131 144.568 171.664 142.145 171.664C139.723 171.664 138.107 170.131 138.107 167.83V159.012C135.684 157.862 134.069 155.178 134.069 152.495C134.069 148.277 137.703 144.827 142.145 144.827C146.588 144.827 150.222 147.894 150.222 152.495Z" fill="#BDC5D1"/>
<rect x="110" y="82" width="70.4" height="89" rx="5" fill="white"/>
<rect x="93.5" y="103" width="93.5" height="84" fill="white"/>
<ellipse cx="154.632" cy="133.66" rx="25.6324" ry="24.1968" fill="#3598DB"/>
<rect x="124.379" y="135.26" width="61.1262" height="47.1788" rx="2" fill="#3598DB"/>
<rect x="147.256" y="144.279" width="17.8303" height="17" rx="8.5" fill="white"/>
<rect x="151.992" y="157.854" width="8.91516" height="14.5896" rx="4.45758" fill="white"/>
</svg>
