<svg width="25" height="25" viewBox="0 0 25 25" fill="none" xmlns="http://www.w3.org/2000/svg">
<rect width="25" height="25" fill="white"/>
<path d="M0.00146484 13.9584V24.3851C0.00146484 25.2049 1.28578 25.2049 1.28578 24.3851V13.9584C1.28578 13.1387 0.00146484 13.1387 0.00146484 13.9584V13.9584ZM7.25659 10.5483V24.3851C7.25659 25.2049 8.54091 25.2049 8.54091 24.3851V10.5483C8.54091 9.72843 7.25659 9.72843 7.25659 10.5483ZM14.8275 13.9584V24.3851C14.8275 25.2049 16.1118 25.2049 16.1118 24.3851V13.9584C16.1118 13.1387 14.8275 13.1387 14.8275 13.9584V13.9584Z" fill="#BDC5D1"/>
<path d="M22.5464 10.5483V24.3851C22.5464 25.2049 23.8307 25.2049 23.8307 24.3851V10.5483C23.8307 9.7284 22.5464 9.7284 22.5464 10.5483ZM1.09764 10.3964L8.05298 3.51117H7.14487C9.54188 5.88409 11.9388 8.25715 14.3355 10.6303C14.5829 10.8752 14.9963 10.8752 15.2434 10.6303C17.744 8.15521 20.2442 5.68011 22.7443 3.20502C23.3304 2.62476 22.4224 1.72579 21.8363 2.30605C19.336 4.78105 16.8357 7.25614 14.3355 9.73133H15.2434L8.05288 2.61217C7.80555 2.36733 7.39211 2.36733 7.14475 2.61217L0.189358 9.49744C-0.396687 10.0777 0.511467 10.9767 1.09764 10.3964V10.3964Z" fill="#20A0FF"/>
<path d="M18.5867 2.27137H23.3579L22.7157 1.63568V6.07313C22.7157 6.89304 24 6.89304 24 6.07313V1.63568C24 1.28911 23.7081 1 23.3579 1H18.5867C17.7585 1 17.7585 2.27137 18.5867 2.27137Z" fill="#20A0FF"/>
</svg>
