<svg width="27" height="24" viewBox="0 0 27 24" fill="none" xmlns="http://www.w3.org/2000/svg">
<path d="M13.504 15.9275C7.37959 15.9275 1 14.5473 1 12.2452C1 9.9431 7.37959 8.55768 13.504 8.55768C19.6284 8.55768 26.008 9.93789 26.008 12.24C26.008 14.5421 19.6284 15.9275 13.504 15.9275ZM13.504 9.07851C6.32823 9.07851 1.51037 10.7139 1.51037 12.2452C1.51037 13.7764 6.32823 15.4066 13.504 15.4066C20.6797 15.4066 25.4976 13.7712 25.4976 12.2452C25.4976 10.7191 20.6797 9.07851 13.504 9.07851V9.07851Z" fill="#BDC5D1" stroke="#BDC5D1" stroke-width="0.5"/>
<path d="M7.88998 23.4639C7.66278 23.4665 7.43902 23.4072 7.24181 23.292C6.1088 22.6254 6.40991 20.3806 6.85904 18.6045C7.68468 15.7287 8.86636 12.9721 10.3755 10.4014C11.8097 7.78136 13.5659 5.35898 15.6016 3.19307C16.8724 1.91182 18.6077 0.521195 19.756 1.19307C21.7107 2.34411 19.705 8.65661 16.6326 14.0837C13.8613 18.9795 10.059 23.4639 7.88998 23.4639ZM19.118 1.54203C18.3984 1.54203 17.2756 2.26078 15.9793 3.56286C13.97 5.69519 12.236 8.08083 10.8195 10.6618C9.34022 13.1995 8.18426 15.9193 7.37961 18.7556C6.81821 20.9327 6.86925 22.4639 7.52252 22.8441C8.81885 23.6045 12.6262 20.167 16.1988 13.8285C19.7713 7.48995 20.7972 2.43265 19.5008 1.64099C19.3834 1.57572 19.2518 1.54169 19.118 1.54203V1.54203Z" fill="#BDC5D1" stroke="#BDC5D1" stroke-width="0.5"/>
<path d="M19.0925 23.4691C18.0105 23.4691 16.6427 22.3441 15.6016 21.2972C13.5657 19.1296 11.8094 16.7055 10.3754 14.0837C8.86858 11.5076 7.69031 8.7457 6.86921 5.86495C6.41498 4.10453 6.11387 1.85974 7.25199 1.17745C8.3901 0.495158 10.1356 1.91183 11.4064 3.19308C13.4421 5.35891 15.1984 7.7813 16.6325 10.4014C19.6947 15.8337 21.7362 22.141 19.756 23.292C19.5542 23.4103 19.3252 23.4714 19.0925 23.4691V23.4691ZM7.88994 1.54203C7.74934 1.5381 7.61023 1.57224 7.48675 1.64099C6.86921 2.02641 6.80797 3.55245 7.37958 5.73474C8.18906 8.57173 9.35018 11.2916 10.8348 13.8285C12.2404 16.4057 13.9623 18.7895 15.9588 20.9222C17.5308 22.4847 18.8526 23.2191 19.5008 22.8441C20.7971 22.0785 19.7764 17.0056 16.1885 10.6618C14.7782 8.08207 13.0511 5.69649 11.0491 3.56287C9.75789 2.26078 8.62998 1.54203 7.88994 1.54203V1.54203Z" fill="#BDC5D1" stroke="#BDC5D1" stroke-width="0.5"/>
<ellipse cx="13.555" cy="12.266" rx="2.02105" ry="2.0625" fill="#429FDD"/>
</svg>
