<svg width="25" height="25" viewBox="0 0 25 25" fill="none" xmlns="http://www.w3.org/2000/svg">
<path d="M0.203949 6.79675C0.203949 4.09794 2.3893 1.89894 5.07688 1.89382H8.21581L7.3941 1.06705C7.33628 1.00924 7.29039 0.940491 7.25907 0.864765C7.22776 0.78904 7.21164 0.707831 7.21164 0.625813C7.21164 0.543794 7.22776 0.462585 7.25907 0.38686C7.29039 0.311134 7.33628 0.242387 7.3941 0.184575C7.45156 0.126337 7.51992 0.0801156 7.59521 0.0485738C7.67051 0.0170321 7.75127 0.000793457 7.83283 0.000793457C7.9144 0.000793457 7.99515 0.0170321 8.07045 0.0485738C8.14575 0.0801156 8.2141 0.126337 8.27157 0.184575L10.1527 2.07748C10.2695 2.1948 10.3352 2.35799 10.3352 2.52137C10.3352 2.68968 10.2695 2.84775 10.1527 2.96527L8.27157 4.85798C8.21382 4.91651 8.14507 4.9629 8.06933 4.99443C7.99358 5.02596 7.91236 5.04201 7.83039 5.04164C7.668 5.04164 7.5109 4.98061 7.38921 4.85798C7.33136 4.80016 7.28544 4.7314 7.25411 4.65566C7.22278 4.57991 7.20665 4.49868 7.20665 4.41664C7.20665 4.3346 7.22278 4.25337 7.25411 4.17762C7.28544 4.10188 7.33136 4.03312 7.38921 3.9753L8.21072 3.14893H5.0716C3.07367 3.14893 1.4461 4.78672 1.4461 6.79675V9.03158C1.4461 9.37842 1.1722 9.65893 0.82747 9.65893C0.74558 9.65896 0.664489 9.64275 0.588828 9.61123C0.513168 9.57971 0.444421 9.5335 0.386517 9.47524C0.328612 9.41698 0.282685 9.34781 0.251359 9.27169C0.220034 9.19556 0.203923 9.11397 0.203949 9.03158V6.79675ZM11.74 12.8121C12.0796 12.8121 12.3586 13.0928 12.3637 13.4345V24.3732C12.3637 24.4557 12.3476 24.5373 12.3163 24.6134C12.285 24.6896 12.239 24.7588 12.1811 24.8171C12.1232 24.8754 12.0544 24.9216 11.9787 24.9531C11.903 24.9846 11.8219 25.0008 11.74 25.0008H0.873055C0.791133 25.0008 0.710004 24.9846 0.634308 24.9531C0.558612 24.9216 0.489834 24.8754 0.431906 24.8171C0.373979 24.7588 0.328038 24.6896 0.296711 24.6134C0.265385 24.5373 0.249287 24.4557 0.249339 24.3732V13.4396C0.249287 13.3572 0.265385 13.2756 0.296711 13.1994C0.328038 13.1232 0.373979 13.054 0.431906 12.9958C0.489834 12.9375 0.558612 12.8913 0.634308 12.8597C0.710004 12.8282 0.791133 12.812 0.873055 12.8121H11.7398H11.74ZM11.1162 23.7457H11.1213V14.0621H1.49697V23.7457H11.1162ZM24.3763 15.3428C24.4582 15.3427 24.5393 15.3589 24.615 15.3904C24.6907 15.4219 24.7594 15.4681 24.8174 15.5264C24.8753 15.5846 24.9212 15.6538 24.9526 15.73C24.9839 15.8061 25 15.8877 25 15.9701V18.2101C25 20.9089 22.8146 23.1079 20.1322 23.1079H16.9932L17.8149 23.9346C17.8728 23.9925 17.9186 24.0612 17.95 24.1369C17.9813 24.2127 17.9974 24.2939 17.9974 24.3759C17.9974 24.4579 17.9813 24.5391 17.95 24.6148C17.9186 24.6906 17.8728 24.7593 17.8149 24.8171C17.7572 24.8757 17.6884 24.9221 17.6126 24.9536C17.5368 24.9852 17.4556 25.0012 17.3736 25.0008C17.2112 25.0008 17.0541 24.9396 16.9324 24.8171L15.0513 22.9242C14.9932 22.866 14.9472 22.7968 14.9159 22.7206C14.8846 22.6444 14.8686 22.5628 14.8687 22.4803C14.8687 22.312 14.9345 22.1539 15.0513 22.0364L16.9324 20.1437C16.9898 20.0855 17.0582 20.0393 17.1335 20.0078C17.2087 19.9763 17.2895 19.96 17.371 19.96C17.4526 19.96 17.5333 19.9763 17.6086 20.0078C17.6839 20.0393 17.7522 20.0855 17.8097 20.1437C17.8675 20.2015 17.9134 20.2703 17.9447 20.346C17.9761 20.4218 17.9922 20.503 17.9922 20.5851C17.9922 20.6671 17.9761 20.7483 17.9447 20.8241C17.9134 20.8998 17.8675 20.9686 17.8097 21.0264L16.9881 21.8528H20.1271C22.125 21.8528 23.7526 20.215 23.7526 18.205V15.9701C23.7525 15.8877 23.7687 15.8061 23.8 15.73C23.8313 15.6538 23.8773 15.5846 23.9352 15.5264C23.9931 15.4681 24.0619 15.4219 24.1376 15.3904C24.2133 15.3589 24.2944 15.3427 24.3763 15.3428ZM24.3309 0.00603245C24.6758 0.00603245 24.9495 0.286543 24.9546 0.633588V11.5672C24.9547 11.6496 24.9386 11.7312 24.9072 11.8074C24.8759 11.8836 24.83 11.9528 24.772 12.0111C24.7141 12.0693 24.6453 12.1156 24.5696 12.1471C24.4939 12.1786 24.4128 12.1948 24.3309 12.1947H13.464C13.3821 12.1948 13.3009 12.1786 13.2252 12.1471C13.1495 12.1156 13.0808 12.0693 13.0228 12.0111C12.9649 11.9528 12.919 11.8836 12.8876 11.8074C12.8563 11.7312 12.8402 11.6496 12.8403 11.5672V0.633588C12.8402 0.551162 12.8563 0.469534 12.8876 0.393372C12.919 0.31721 12.9649 0.248008 13.0228 0.189724C13.0808 0.13144 13.1495 0.0852162 13.2252 0.0536969C13.3009 0.0221776 13.3821 0.00598069 13.464 0.00603245H24.3307H24.3309ZM23.7072 10.9396V1.25603H14.0877V10.9396H18.8973H23.707H23.7072Z" fill="#3498DB"/>
<mask id="path-2-inside-1_1085_249" fill="white">
<rect x="12.5964" width="12.398" height="12.5" rx="0.5"/>
</mask>
<rect x="12.5964" width="12.398" height="12.5" rx="0.5" fill="white" stroke="white" stroke-width="2" mask="url(#path-2-inside-1_1085_249)"/>
<mask id="path-3-inside-2_1085_249" fill="white">
<rect x="12.5964" width="12.398" height="12.5" rx="0.5"/>
</mask>
<rect x="12.5964" width="12.398" height="12.5" rx="0.5" stroke="#BDC5D1" stroke-width="2" mask="url(#path-3-inside-2_1085_249)"/>
<mask id="path-4-inside-3_1085_249" fill="white">
<rect y="12.5" width="12.398" height="12.5" rx="0.5"/>
</mask>
<rect y="12.5" width="12.398" height="12.5" rx="0.5" fill="white" stroke="white" stroke-width="2" mask="url(#path-4-inside-3_1085_249)"/>
<mask id="path-5-inside-4_1085_249" fill="white">
<rect y="12.5" width="12.398" height="12.5" rx="0.5"/>
</mask>
<rect y="12.5" width="12.398" height="12.5" rx="0.5" stroke="#BDC5D1" stroke-width="2" mask="url(#path-5-inside-4_1085_249)"/>
</svg>
