<svg width="104" height="104" viewBox="0 0 104 104" fill="none" xmlns="http://www.w3.org/2000/svg">
<path d="M15.0139 66.6341V6.03377L19.2713 2L23.4319 6.03377L27.5925 2L31.7532 6.03377L35.9138 2L40.0744 6.03377L44.235 2L48.3956 6.03377L52.5563 2L56.7169 6.03377L60.8775 2L65.0381 6.03377L69.1987 2L73.3593 6.03377L77.52 2L81.6806 6.03377L86.5185 2L90.7759 6.03377V96.5591C90.7759 98.0021 91.3672 99.386 92.4196 100.406C93.4721 101.427 94.8995 102 96.3879 102V102C97.8763 102 99.3037 101.427 100.356 100.406C101.409 99.386 102 98.0021 102 96.5591V8.09756H96.3879V95.4334" stroke="#BDC5D1" stroke-width="3" stroke-miterlimit="10" stroke-linecap="round" stroke-linejoin="round"/>
<path d="M96.2912 102H25.6575" stroke="#BDC5D1" stroke-width="3" stroke-miterlimit="10" stroke-linecap="round" stroke-linejoin="round"/>
<g opacity="0.5">
<path d="M75.972 92.8067H38.3329C37.4045 92.8096 36.4847 92.6344 35.6264 92.2913C34.7681 91.9481 33.9883 91.4438 33.3318 90.8074C32.6753 90.1709 32.1552 89.4148 31.8012 88.5827C31.4473 87.7506 31.2666 86.8588 31.2696 85.9587V85.9587C31.2666 85.0586 31.4473 84.1669 31.8012 83.3347C32.1552 82.5026 32.6753 81.7465 33.3318 81.1101C33.9883 80.4736 34.7681 79.9693 35.6264 79.6262C36.4847 79.283 37.4045 79.1078 38.3329 79.1107H75.972C76.9004 79.1078 77.8203 79.283 78.6785 79.6262C79.5368 79.9693 80.3167 80.4736 80.9732 81.1101C81.6296 81.7465 82.1498 82.5026 82.5037 83.3347C82.8577 84.1669 83.0384 85.0586 83.0354 85.9587V85.9587C83.0466 86.861 82.8715 87.7564 82.5205 88.5921C82.1695 89.4278 81.6496 90.1871 80.9915 90.8251C80.3333 91.4632 79.5502 91.9672 78.6882 92.3075C77.8262 92.6478 76.9027 92.8176 75.972 92.8067Z" fill="#E7EAF3"/>
</g>
<path d="M71.1341 86.7092H33.4951C32.5667 86.712 31.6468 86.5369 30.7885 86.1937C29.9302 85.8506 29.1504 85.3463 28.4939 84.7098C27.8375 84.0733 27.3173 83.3173 26.9634 82.4851C26.6094 81.653 26.4287 80.7613 26.4317 79.8612V79.8612C26.4287 78.9611 26.6094 78.0693 26.9634 77.2372C27.3173 76.405 27.8375 75.649 28.4939 75.0125C29.1504 74.376 29.9302 73.8717 30.7885 73.5286C31.6468 73.1855 32.5667 73.0103 33.4951 73.0131H71.1341C72.0625 73.0103 72.9824 73.1855 73.8407 73.5286C74.699 73.8717 75.4788 74.376 76.1353 75.0125C76.7917 75.649 77.3119 76.405 77.6658 77.2372C78.0198 78.0693 78.2005 78.9611 78.1975 79.8612V79.8612C78.2087 80.7635 78.0336 81.6588 77.6826 82.4945C77.3316 83.3303 76.8117 84.0895 76.1536 84.7276C75.4955 85.3656 74.7123 85.8696 73.8503 86.21C72.9883 86.5503 72.0648 86.72 71.1341 86.7092V86.7092Z" fill="#BDC5D1"/>
<path d="M63.6837 81.3621H40.9455C40.7415 81.3646 40.539 81.3275 40.35 81.253C40.161 81.1784 39.9893 81.068 39.845 80.9281C39.7007 80.7882 39.5868 80.6218 39.5099 80.4385C39.433 80.2553 39.3947 80.059 39.3973 79.8612V79.8612C39.3947 79.6634 39.433 79.4671 39.5099 79.2838C39.5868 79.1006 39.7007 78.9341 39.845 78.7942C39.9893 78.6543 40.161 78.5439 40.35 78.4693C40.539 78.3948 40.7415 78.3577 40.9455 78.3602H63.6837C63.8878 78.3577 64.0903 78.3948 64.2793 78.4693C64.4683 78.5439 64.64 78.6543 64.7842 78.7942C64.9285 78.9341 65.0425 79.1006 65.1193 79.2838C65.1962 79.4671 65.2345 79.6634 65.2319 79.8612C65.2209 80.2559 65.0543 80.6315 64.7663 80.9107C64.4783 81.1899 64.0909 81.3514 63.6837 81.3621V81.3621Z" fill="white"/>
<g opacity="0.5">
<path d="M75.972 65.6023H38.3329C37.4045 65.6051 36.4847 65.4299 35.6264 65.0868C34.7681 64.7436 33.9883 64.2393 33.3318 63.6029C32.6753 62.9664 32.1552 62.2103 31.8012 61.3782C31.4473 60.5461 31.2666 59.6543 31.2696 58.7542V58.7542C31.2666 57.8541 31.4473 56.9624 31.8012 56.1302C32.1552 55.2981 32.6753 54.542 33.3318 53.9056C33.9883 53.2691 34.7681 52.7648 35.6264 52.4217C36.4847 52.0785 37.4045 51.9033 38.3329 51.9062H75.972C76.9004 51.9033 77.8203 52.0785 78.6785 52.4217C79.5368 52.7648 80.3167 53.2691 80.9732 53.9056C81.6296 54.542 82.1498 55.2981 82.5037 56.1302C82.8577 56.9624 83.0384 57.8541 83.0354 58.7542V58.7542C83.0466 59.6565 82.8715 60.5519 82.5205 61.3876C82.1695 62.2233 81.6496 62.9826 80.9915 63.6206C80.3333 64.2587 79.5502 64.7627 78.6882 65.103C77.8262 65.4433 76.9027 65.6131 75.972 65.6023Z" fill="#E7EAF3"/>
</g>
<path d="M71.1341 59.5047H33.4951C32.5667 59.5075 31.6468 59.3324 30.7885 58.9892C29.9302 58.6461 29.1504 58.1418 28.4939 57.5053C27.8375 56.8688 27.3173 56.1128 26.9634 55.2807C26.6094 54.4485 26.4287 53.5568 26.4317 52.6567V52.6567C26.4287 51.7566 26.6094 50.8648 26.9634 50.0327C27.3173 49.2005 27.8375 48.4445 28.4939 47.808C29.1504 47.1715 29.9302 46.6672 30.7885 46.3241C31.6468 45.981 32.5667 45.8058 33.4951 45.8086H71.1341C72.0625 45.8058 72.9824 45.981 73.8407 46.3241C74.699 46.6672 75.4788 47.1715 76.1353 47.808C76.7917 48.4445 77.3119 49.2005 77.6658 50.0327C78.0198 50.8648 78.2005 51.7566 78.1975 52.6567V52.6567C78.2087 53.559 78.0336 54.4543 77.6826 55.29C77.3316 56.1258 76.8117 56.885 76.1536 57.5231C75.4955 58.1611 74.7123 58.6651 73.8503 59.0055C72.9883 59.3458 72.0648 59.5155 71.1341 59.5047V59.5047Z" fill="#BDC5D1"/>
<path d="M63.6837 54.1576H40.9455C40.7415 54.1601 40.539 54.123 40.35 54.0485C40.161 53.9739 39.9893 53.8635 39.845 53.7236C39.7007 53.5837 39.5868 53.4172 39.5099 53.234C39.433 53.0508 39.3947 52.8545 39.3973 52.6567V52.6567C39.3947 52.4588 39.433 52.2625 39.5099 52.0793C39.5868 51.8961 39.7007 51.7296 39.845 51.5897C39.9893 51.4498 40.161 51.3394 40.35 51.2648C40.539 51.1903 40.7415 51.1532 40.9455 51.1557H63.6837C63.8878 51.1532 64.0903 51.1903 64.2793 51.2648C64.4683 51.3394 64.64 51.4498 64.7842 51.5897C64.9285 51.7296 65.0425 51.8961 65.1193 52.0793C65.1962 52.2625 65.2345 52.4588 65.2319 52.6567C65.2209 53.0514 65.0543 53.427 64.7663 53.7062C64.4783 53.9854 64.0909 54.1469 63.6837 54.1576V54.1576Z" fill="white"/>
<g opacity="0.5">
<path d="M75.972 37.4597H38.3329C37.4045 37.4625 36.4847 37.2873 35.6264 36.9442C34.7681 36.6011 33.9883 36.0967 33.3318 35.4603C32.6753 34.8238 32.1552 34.0677 31.8012 33.2356C31.4473 32.4035 31.2666 31.5117 31.2696 30.6116V30.6116C31.2666 29.7115 31.4473 28.8198 31.8012 27.9876C32.1552 27.1555 32.6753 26.3995 33.3318 25.763C33.9883 25.1265 34.7681 24.6222 35.6264 24.2791C36.4847 23.9359 37.4045 23.7607 38.3329 23.7636H75.972C76.9004 23.7607 77.8203 23.9359 78.6785 24.2791C79.5368 24.6222 80.3167 25.1265 80.9732 25.763C81.6296 26.3995 82.1498 27.1555 82.5037 27.9876C82.8577 28.8198 83.0384 29.7115 83.0354 30.6116V30.6116C83.0466 31.5139 82.8715 32.4093 82.5205 33.245C82.1695 34.0807 81.6496 34.84 80.9915 35.478C80.3333 36.1161 79.5502 36.6201 78.6882 36.9604C77.8262 37.3007 76.9027 37.4705 75.972 37.4597Z" fill="#BDC5D1"/>
</g>
<path d="M71.1341 31.3621H33.4951C32.5667 31.365 31.6468 31.1898 30.7885 30.8466C29.9302 30.5035 29.1504 29.9992 28.4939 29.3627C27.8375 28.7263 27.3173 27.9702 26.9634 27.1381C26.6094 26.3059 26.4287 25.4142 26.4317 24.5141V24.5141C26.4287 23.614 26.6094 22.7222 26.9634 21.8901C27.3173 21.058 27.8375 20.3019 28.4939 19.6654C29.1504 19.029 29.9302 18.5247 30.7885 18.1815C31.6468 17.8384 32.5667 17.6632 33.4951 17.666H71.1341C72.0625 17.6632 72.9824 17.8384 73.8407 18.1815C74.699 18.5247 75.4788 19.029 76.1353 19.6654C76.7917 20.3019 77.3119 21.058 77.6658 21.8901C78.0198 22.7222 78.2005 23.614 78.1975 24.5141V24.5141C78.2087 25.4164 78.0336 26.3117 77.6826 27.1475C77.3316 27.9832 76.8117 28.7424 76.1536 29.3805C75.4955 30.0186 74.7123 30.5226 73.8503 30.8629C72.9883 31.2032 72.0648 31.3729 71.1341 31.3621V31.3621Z" fill="#3498DB"/>
<path d="M63.6837 26.015H40.9455C40.7415 26.0175 40.539 25.9804 40.35 25.9059C40.161 25.8314 39.9893 25.7209 39.845 25.581C39.7007 25.4411 39.5868 25.2747 39.5099 25.0914C39.433 24.9082 39.3947 24.7119 39.3973 24.5141V24.5141C39.3947 24.3163 39.433 24.12 39.5099 23.9367C39.5868 23.7535 39.7007 23.587 39.845 23.4471C39.9893 23.3073 40.161 23.1968 40.35 23.1223C40.539 23.0477 40.7415 23.0106 40.9455 23.0131H63.6837C63.8878 23.0106 64.0903 23.0477 64.2793 23.1223C64.4683 23.1968 64.64 23.3073 64.7842 23.4471C64.9285 23.587 65.0425 23.7535 65.1193 23.9367C65.1962 24.12 65.2345 24.3163 65.2319 24.5141C65.2209 24.9088 65.0543 25.2844 64.7663 25.5636C64.4783 25.8428 64.0909 26.0044 63.6837 26.015V26.015Z" fill="white"/>
<g opacity="0.5">
<path d="M2 76.3902H14.03" stroke="#BDC5D1" stroke-width="3" stroke-linecap="round"/>
<path d="M2 83.4259H20.239" stroke="#BDC5D1" stroke-width="3" stroke-miterlimit="10" stroke-linecap="round" stroke-linejoin="round"/>
<path d="M2 90.5553L9.16014 90.6491" stroke="#BDC5D1" stroke-width="3" stroke-miterlimit="10" stroke-linecap="round" stroke-linejoin="round"/>
<path d="M15.9014 90.5553H20.2391" stroke="#BDC5D1" stroke-width="3" stroke-linecap="round"/>
</g>
</svg>
