<svg width="19" height="20" viewBox="0 0 19 20" fill="none" xmlns="http://www.w3.org/2000/svg">
<path d="M9.08333 11.2188C9.08333 12.2548 9.49488 13.2483 10.2274 13.9809C10.96 14.7135 11.9536 15.125 12.9896 15.125C14.0256 15.125 15.0192 14.7135 15.7517 13.9809C16.4843 13.2483 16.8958 12.2548 16.8958 11.2188C16.8958 10.1827 16.4843 9.18918 15.7517 8.45661C15.0192 7.72405 14.0256 7.3125 12.9896 7.3125C11.9536 7.3125 10.96 7.72405 10.2274 8.45661C9.49488 9.18918 9.08333 10.1827 9.08333 11.2188Z" fill="#ACBFD2"/>
<path d="M16.8958 0.0208435C18.0465 0.0208435 18.9792 0.953552 18.9792 2.10418V13.4583H17.5208V2.10418C17.5208 1.94247 17.4582 1.78706 17.346 1.67059C17.2338 1.55412 17.0809 1.48566 16.9193 1.47959L16.8958 1.47918H2.52083C2.35913 1.47917 2.20371 1.54184 2.08724 1.65402C1.97077 1.76619 1.90231 1.91915 1.89625 2.08074L1.89583 2.10418V17.7292C1.89583 17.8909 1.9585 18.0463 2.07067 18.1628C2.18285 18.2792 2.3358 18.3477 2.4974 18.3538L2.52083 18.3542H12.9375V19.8125H2.52083C1.37021 19.8125 0.4375 18.8798 0.4375 17.7292V2.10418C0.4375 0.953552 1.37021 0.0208435 2.52083 0.0208435H16.8958ZM18.25 10.125C18.4434 10.125 18.6289 10.2018 18.7656 10.3386C18.9023 10.4753 18.9792 10.6608 18.9792 10.8542V13.5625C18.9792 13.7559 18.9023 13.9414 18.7656 14.0781C18.6289 14.2149 18.4434 14.2917 18.25 14.2917C18.0566 14.2917 17.8711 14.2149 17.7344 14.0781C17.5977 13.9414 17.5208 13.7559 17.5208 13.5625V10.8542C17.5208 10.6608 17.5977 10.4753 17.7344 10.3386C17.8711 10.2018 18.0566 10.125 18.25 10.125ZM10.4375 18.3542H13.1458C13.3392 18.3542 13.5246 18.431 13.6613 18.5678C13.7981 18.7045 13.8749 18.89 13.8749 19.0833C13.8749 19.2767 13.7981 19.4622 13.6613 19.5989C13.5246 19.7356 13.3392 19.8125 13.1458 19.8125H10.4375C10.2441 19.8125 10.0587 19.7356 9.92199 19.5989C9.78527 19.4622 9.70847 19.2767 9.70847 19.0833C9.70847 18.89 9.78527 18.7045 9.92199 18.5678C10.0587 18.431 10.2441 18.3542 10.4375 18.3542Z" fill="#ACBFD2"/>
<path d="M9.32719 10.1084C10.9544 8.48135 13.5926 8.48135 15.2198 10.1084C16.671 11.5598 16.8279 13.8153 15.6904 15.4404L17.8715 17.6215C17.9295 17.6795 17.9756 17.7484 18.007 17.8242C18.0384 17.9001 18.0546 17.9814 18.0546 18.0634C18.0546 18.1455 18.0384 18.2268 18.007 18.3026C17.9756 18.3785 17.9295 18.4474 17.8715 18.5054L17.7242 18.6527C17.6661 18.7108 17.5972 18.7568 17.5214 18.7882C17.4456 18.8196 17.3643 18.8358 17.2822 18.8358C17.2001 18.8358 17.1188 18.8196 17.043 18.7882C16.9671 18.7568 16.8982 18.7108 16.8402 18.6527L14.6593 16.4717C13.0341 17.6092 10.7785 17.4523 9.32719 16.001C7.7001 14.3739 7.7001 11.7356 9.32719 10.1084ZM10.3584 11.1397C9.30073 12.1973 9.30073 13.9122 10.3584 14.9699C11.416 16.0275 13.1309 16.0275 14.1886 14.9699C15.2462 13.9122 15.2462 12.1973 14.1886 11.1397C13.1309 10.082 11.416 10.082 10.3584 11.1397Z" fill="#3899DB"/>
<path d="M5.85417 11.375C6.04753 11.375 6.23296 11.4519 6.36968 11.5886C6.50639 11.7254 6.5832 11.9108 6.5832 12.1042C6.5832 12.2975 6.50639 12.483 6.36968 12.6197C6.23296 12.7565 6.04753 12.8333 5.85417 12.8333H4.1875C3.99414 12.8333 3.8087 12.7565 3.67199 12.6197C3.53527 12.483 3.45847 12.2975 3.45847 12.1042C3.45847 11.9108 3.53527 11.7254 3.67199 11.5886C3.8087 11.4519 3.99414 11.375 4.1875 11.375H5.85417ZM7.9375 7.625C8.13086 7.62504 8.3163 7.70187 8.45301 7.83861C8.58973 7.97536 8.66653 8.1608 8.66653 8.35417C8.66653 8.54753 8.58973 8.73298 8.45301 8.86972C8.3163 9.00646 8.13086 9.0833 7.9375 9.08333H4.1875C3.99414 9.0833 3.8087 9.00646 3.67199 8.86972C3.53527 8.73298 3.45847 8.54753 3.45847 8.35417C3.45847 8.1608 3.53527 7.97536 3.67199 7.83861C3.8087 7.70187 3.99414 7.62504 4.1875 7.625H7.9375ZM14.1875 3.875C14.3809 3.87504 14.5663 3.95187 14.703 4.08861C14.8397 4.22536 14.9165 4.4108 14.9165 4.60417C14.9165 4.79753 14.8397 4.98298 14.703 5.11972C14.5663 5.25646 14.3809 5.3333 14.1875 5.33333H4.1875C3.99414 5.3333 3.8087 5.25646 3.67199 5.11972C3.53527 4.98298 3.45847 4.79753 3.45847 4.60417C3.45847 4.4108 3.53527 4.22536 3.67199 4.08861C3.8087 3.95187 3.99414 3.87504 4.1875 3.875H14.1875Z" fill="#ACBFD2"/>
</svg>
