<svg width="128" height="128" viewBox="0 0 128 128" fill="none" xmlns="http://www.w3.org/2000/svg">
<g clip-path="url(#clip0_1769_123)">
<g clip-path="url(#clip1_1769_123)">
<path d="M99.1275 42.8283H87.8029C87.1499 42.825 86.505 42.6843 85.9104 42.4153C85.3158 42.1464 84.7849 41.7554 84.3526 41.2679L79.7592 36.1015C79.4216 35.7235 79.0076 35.421 78.5442 35.2138C78.0809 35.0066 77.5788 34.8995 77.0709 34.8995C76.5604 34.9018 76.0558 35.0099 75.5894 35.2168C75.123 35.4237 74.7048 35.725 74.3615 36.1015L70.4243 40.5298C69.79 41.2504 69.0088 41.8281 68.1328 42.2244C67.2569 42.6207 66.3062 42.8266 65.3441 42.8283H3.36564C1.57872 47.9304 0.447835 53.2375 0 58.6227H58.507C59.0139 58.6221 59.5154 58.5189 59.9811 58.3196C60.4468 58.1202 60.8671 57.8288 61.2165 57.4629L66.6777 51.7904C67.0084 51.4277 67.4098 51.1359 67.8574 50.9329C68.3051 50.7299 68.7895 50.6198 69.2813 50.6096H69.493C70.004 50.6093 70.5093 50.7161 70.9761 50.9232C71.4429 51.1303 71.8608 51.433 72.2024 51.8115L76.7958 56.9779C77.2255 57.4686 77.7558 57.8618 78.351 58.131C78.9462 58.4002 79.5924 58.5391 80.2461 58.5384H128C127.555 53.1508 126.417 47.8424 124.613 42.744H99.2122L99.1275 42.8283Z" fill="gray"/>
<path d="M35.3917 91.8353C35.8984 91.8334 36.3995 91.7297 36.8651 91.5304C37.3306 91.3311 37.751 91.0403 38.1012 90.6755L43.5412 85.003C43.8813 84.6584 44.2864 84.3841 44.7332 84.196C45.18 84.0078 45.6597 83.9094 46.1448 83.9064H46.3777C46.8883 83.9087 47.3928 84.0168 47.8592 84.2237C48.3256 84.4306 48.7438 84.7319 49.0871 85.1084L53.6805 90.2748C54.1069 90.7639 54.6337 91.1562 55.2252 91.4254C55.8167 91.6946 56.4593 91.8343 57.1096 91.8353H121.861C124.302 86.7799 126.067 81.4272 127.111 75.9143H65.0051C64.3535 75.915 63.7091 75.7781 63.1144 75.5128C62.5197 75.2475 61.9882 74.8597 61.5548 74.375L56.9614 69.1664C56.6226 68.783 56.2058 68.4756 55.7387 68.2648C55.2715 68.0539 54.7648 67.9444 54.252 67.9433C53.7418 67.9419 53.2374 68.0504 52.7734 68.2616C52.3094 68.4727 51.8967 68.7814 51.5637 69.1664L47.6266 73.5947C46.99 74.3197 46.206 74.9014 45.3264 75.3014C44.4469 75.7013 43.492 75.9102 42.5252 75.9143H0.888672C1.93193 81.4272 3.69685 86.7799 6.13822 91.8353H35.3917Z" fill="gray"/>
<path d="M81.3041 25.5578C81.8142 25.5576 82.319 25.4547 82.7882 25.2554C83.2574 25.0561 83.6814 24.7645 84.0347 24.398L89.4748 18.7466C89.811 18.3954 90.2148 18.1153 90.6622 17.9233C91.1096 17.7313 91.5913 17.6312 92.0784 17.629H92.3112C92.8241 17.63 93.3308 17.7396 93.7979 17.9504C94.265 18.1613 94.6818 18.4686 95.0207 18.8521L99.5929 24.0184C100.029 24.5001 100.561 24.8857 101.155 25.1508C101.749 25.4159 102.392 25.5545 103.043 25.5578H115.363C109.376 17.6333 101.623 11.2033 92.7147 6.77515C83.8064 2.34703 73.9871 0.0420227 64.0314 0.0420227C54.0758 0.0420227 44.2564 2.34703 35.3482 6.77515C26.44 11.2033 18.6867 17.6333 12.7002 25.5578H81.3041Z" fill="gray"/>
<path d="M56.6021 107.651H39.6681C39.0178 107.65 38.3753 107.51 37.7837 107.241C37.1922 106.972 36.6655 106.579 36.239 106.09L31.7515 100.924C31.4081 100.547 30.99 100.246 30.5236 100.039C30.0571 99.8323 29.5526 99.7242 29.042 99.7219C28.5342 99.7219 28.0321 99.829 27.5687 100.036C27.1054 100.243 26.6913 100.546 26.3537 100.924L22.3954 105.437C21.7569 106.158 20.972 106.735 20.0926 107.132C19.2131 107.528 18.2593 107.734 17.294 107.735H17.04C23.0474 114.155 30.3168 119.274 38.3957 122.774C46.4747 126.274 55.1903 128.081 64.0002 128.081C72.8101 128.081 81.5257 126.274 89.6046 122.774C97.6836 119.274 104.953 114.155 110.96 107.735L56.6021 107.651Z" fill="gray"/>
</g>
</g>
<defs>
<clipPath id="clip0_1769_123">
<rect width="128" height="128" fill="white"/>
</clipPath>
<clipPath id="clip1_1769_123">
<rect width="128" height="128" fill="white"/>
</clipPath>
</defs>
</svg>
