<svg viewBox="0 0 190 48" version="1.1"
  xmlns="http://www.w3.org/2000/svg"
  xmlns:xlink="http://www.w3.org/1999/xlink">
  <g stroke="none" stroke-width="1" fill="none" fill-rule="evenodd">
    <g >
      <rect x="0" y="0" width="190" height="48"></rect>
      <path d="M73.194,30.314 L61.56,30.314 L58.452,38 L54.336,38 L66.432,8.18 L68.616,8.18 L80.754,38 L76.386,38 L73.194,30.314 Z M62.82,26.786 L71.976,26.786 L68.574,18.428 L67.44,13.934 L67.356,13.934 L66.222,18.512 L62.82,26.786 Z" id="形状" fill="#21345A" fill-rule="nonzero"></path>
      <path d="M82.786,14.95 L85.39,14.95 L86.146,17.764 L86.524,17.764 C87.28,16.672 88.26,15.825 89.464,15.223 C90.668,14.621 92.026,14.32 93.538,14.32 C96.73,14.32 99.11,15.209 100.678,16.987 C102.246,18.765 103.03,21.6 103.03,25.492 C103.03,27.34 102.771,29.013 102.253,30.511 C101.735,32.009 100.993,33.283 100.027,34.333 C99.061,35.383 97.885,36.188 96.499,36.748 C95.113,37.308 93.566,37.588 91.858,37.588 C91.298,37.588 90.787,37.567 90.325,37.525 C89.863,37.483 89.436,37.413 89.044,37.315 C88.652,37.217 88.26,37.105 87.868,36.979 C87.476,36.853 87.07,36.706 86.65,36.538 L86.65,45.4 L82.786,45.4 L82.786,14.95 Z M92.656,17.596 C90.976,17.596 89.66,18.016 88.708,18.856 C87.756,19.696 87.07,20.984 86.65,22.72 L86.65,32.884 C87.294,33.332 87.994,33.682 88.75,33.934 C89.506,34.186 90.472,34.312 91.648,34.312 C93.916,34.312 95.694,33.57 96.982,32.086 C98.27,30.602 98.914,28.39 98.914,25.45 C98.914,23.07 98.438,21.166 97.486,19.738 C96.534,18.31 94.924,17.596 92.656,17.596 Z" id="形状" fill="#21345A" fill-rule="nonzero"></path>
      <path d="M118.376,30.826 C118.376,30.266 118.243,29.797 117.977,29.419 C117.711,29.041 117.354,28.719 116.906,28.453 C116.458,28.187 115.94,27.956 115.352,27.76 C114.764,27.564 114.148,27.368 113.504,27.172 C112.692,26.948 111.873,26.703 111.047,26.437 C110.221,26.171 109.479,25.807 108.821,25.345 C108.163,24.883 107.624,24.288 107.204,23.56 C106.784,22.832 106.574,21.908 106.574,20.788 C106.574,18.604 107.225,16.98 108.527,15.916 C109.829,14.852 111.656,14.32 114.008,14.32 C115.772,14.32 117.256,14.488 118.46,14.824 C119.664,15.16 120.714,15.524 121.61,15.916 L120.686,19.192 C119.93,18.828 119.027,18.471 117.977,18.121 C116.927,17.771 115.772,17.596 114.512,17.596 C113.14,17.596 112.118,17.82 111.446,18.268 C110.774,18.716 110.438,19.528 110.438,20.704 C110.438,21.18 110.564,21.579 110.816,21.901 C111.068,22.223 111.404,22.503 111.824,22.741 C112.244,22.979 112.734,23.189 113.294,23.371 C113.854,23.553 114.442,23.728 115.058,23.896 C115.898,24.12 116.738,24.379 117.578,24.673 C118.418,24.967 119.188,25.359 119.888,25.849 C120.588,26.339 121.155,26.962 121.589,27.718 C122.023,28.474 122.24,29.426 122.24,30.574 C122.24,32.646 121.54,34.333 120.14,35.635 C118.74,36.937 116.64,37.588 113.84,37.588 C112.048,37.588 110.487,37.406 109.157,37.042 C107.827,36.678 106.714,36.258 105.818,35.782 L106.91,32.422 C107.694,32.842 108.702,33.262 109.934,33.682 C111.166,34.102 112.412,34.312 113.672,34.312 C115.044,34.312 116.171,34.067 117.053,33.577 C117.935,33.087 118.376,32.17 118.376,30.826 Z" id="路径" fill="#21345A" fill-rule="nonzero"></path>
      <path d="M142.836,35.488 C141.856,36.188 140.708,36.713 139.392,37.063 C138.076,37.413 136.69,37.588 135.234,37.588 C133.386,37.588 131.811,37.308 130.509,36.748 C129.207,36.188 128.15,35.404 127.338,34.396 C126.526,33.388 125.938,32.17 125.574,30.742 C125.21,29.314 125.028,27.732 125.028,25.996 C125.028,22.272 125.931,19.395 127.737,17.365 C129.543,15.335 132.14,14.32 135.528,14.32 C137.012,14.32 138.3,14.453 139.392,14.719 C140.484,14.985 141.464,15.314 142.332,15.706 L141.324,18.856 C140.568,18.464 139.749,18.156 138.867,17.932 C137.985,17.708 137.026,17.596 135.99,17.596 C131.426,17.596 129.144,20.396 129.144,25.996 C129.144,27.06 129.27,28.089 129.522,29.083 C129.774,30.077 130.18,30.959 130.74,31.729 C131.3,32.499 132.035,33.122 132.945,33.598 C133.855,34.074 134.968,34.312 136.284,34.312 C137.46,34.312 138.489,34.151 139.371,33.829 C140.253,33.507 140.988,33.122 141.576,32.674 L142.836,35.488 Z" id="路径" fill="#21345A" fill-rule="nonzero"></path>
      <path d="M146.17,16.336 C148.69,15.132 151.812,14.53 155.536,14.53 C157.216,14.53 158.567,14.747 159.589,15.181 C160.611,15.615 161.402,16.168 161.962,16.84 C162.522,17.512 162.893,18.261 163.075,19.087 C163.257,19.913 163.348,20.732 163.348,21.544 C163.348,23.084 163.292,24.631 163.18,26.185 C163.068,27.739 163.012,29.426 163.012,31.246 C163.012,32.31 163.061,33.339 163.159,34.333 C163.257,35.327 163.418,36.244 163.642,37.084 L160.828,37.084 L159.778,33.724 L159.358,33.724 C159.05,34.144 158.672,34.571 158.224,35.005 C157.776,35.439 157.244,35.824 156.628,36.16 C156.012,36.496 155.305,36.776 154.507,37 C153.709,37.224 152.792,37.336 151.756,37.336 C150.72,37.336 149.768,37.189 148.9,36.895 C148.032,36.601 147.283,36.188 146.653,35.656 C146.023,35.124 145.526,34.473 145.162,33.703 C144.798,32.933 144.616,32.072 144.616,31.12 C144.616,29.86 144.889,28.768 145.435,27.844 C145.981,26.92 146.688,26.164 147.556,25.576 C148.424,24.988 149.411,24.554 150.517,24.274 C151.623,23.994 152.722,23.854 153.814,23.854 C154.682,23.854 155.417,23.868 156.019,23.896 C156.621,23.924 157.125,23.959 157.531,24.001 C157.937,24.043 158.28,24.085 158.56,24.127 C158.84,24.169 159.092,24.204 159.316,24.232 C159.372,23.812 159.414,23.448 159.442,23.14 C159.47,22.832 159.484,22.44 159.484,21.964 C159.484,21.18 159.4,20.522 159.232,19.99 C159.064,19.458 158.791,19.031 158.413,18.709 C158.035,18.387 157.524,18.156 156.88,18.016 C156.236,17.876 155.452,17.806 154.528,17.806 C153.996,17.806 153.408,17.848 152.764,17.932 C152.12,18.016 151.476,18.135 150.832,18.289 C150.188,18.443 149.551,18.632 148.921,18.856 C148.291,19.08 147.724,19.318 147.22,19.57 L146.17,16.336 Z M159.316,27.004 C159.092,26.976 158.854,26.934 158.602,26.878 C158.35,26.822 158.035,26.78 157.657,26.752 C157.279,26.724 156.831,26.696 156.313,26.668 C155.795,26.64 155.158,26.626 154.402,26.626 C152.666,26.626 151.287,26.934 150.265,27.55 C149.243,28.166 148.732,29.216 148.732,30.7 C148.732,31.82 149.131,32.66 149.929,33.22 C150.727,33.78 151.756,34.06 153.016,34.06 C153.94,34.06 154.759,33.941 155.473,33.703 C156.187,33.465 156.803,33.171 157.321,32.821 C157.839,32.471 158.259,32.079 158.581,31.645 C158.903,31.211 159.148,30.784 159.316,30.364 L159.316,27.004 Z" id="形状" fill="#21345A" fill-rule="nonzero"></path>
      <path d="M183.532,37 L183.532,24.82 C183.532,22.468 183.154,20.704 182.398,19.528 C181.642,18.352 180.298,17.764 178.366,17.764 C176.658,17.764 175.237,18.205 174.103,19.087 C172.969,19.969 172.178,21.096 171.73,22.468 L171.73,37 L167.866,37 L167.866,14.95 L170.554,14.95 L171.31,17.89 L171.688,17.89 C172.5,16.882 173.557,16.035 174.859,15.349 C176.161,14.663 177.722,14.32 179.542,14.32 C180.83,14.32 181.964,14.467 182.944,14.761 C183.924,15.055 184.743,15.573 185.401,16.315 C186.059,17.057 186.556,18.051 186.892,19.297 C187.228,20.543 187.396,22.118 187.396,24.022 L187.396,37 L183.532,37 Z" id="路径" fill="#21345A" fill-rule="nonzero"></path>
      <path d="M26.1075161,32.5283871 L24.4238081,45.9959995 L24,46 C21.9478348,46 19.9612963,45.7190185 18.0767578,45.1934286 L19.6585161,32.5283871 L26.1075161,32.5283871 Z M31.5275161,32.5283871 L44.2854319,32.5295022 C41.7057087,38.6573682 36.4303605,43.3716526 29.9441589,45.1875838 L31.5275161,32.5283871 Z M14.2395161,32.5283871 L12.9289005,43.0154852 C8.82894306,40.6232718 5.57258551,36.9430307 3.71456814,32.5295022 L14.2395161,32.5283871 Z M2.31158738,20.2894593 L15.7695161,20.2893871 L14.9175161,27.1093871 L2.21816316,27.1103119 C2.07437209,26.0942139 2,25.0557922 2,24 C2,22.7353949 2.10669964,21.4957108 2.31158738,20.2894593 Z M33.0575161,20.2893871 L45.6885823,20.2904584 C45.8933593,21.4963953 46,22.735744 46,24 C46,25.0557922 45.9256279,26.0942139 45.7818368,27.1103119 L32.2045161,27.1093871 L33.0575161,20.2893871 Z M27.6375161,20.2893871 L26.7845161,27.1093871 L20.3365161,27.1093871 L21.1885161,20.2893871 L27.6375161,20.2893871 Z M34.9779372,4.93046274 C38.9336978,7.21262973 42.1128887,10.6902882 44.0218779,14.8698062 L33.7345161,14.8703871 L34.9779372,4.93046274 Z M17.950587,2.84216856 L16.4475161,14.8703871 L3.97812215,14.8698062 C6.5704929,9.19410066 11.505258,4.81270272 17.5462302,2.96179965 L17.950587,2.84216856 Z M24,2 C26.0170886,2 27.9707746,2.27145824 29.8265185,2.77983499 L28.3145161,14.8703871 L21.8665161,14.8703871 L23.4752841,2.00613466 C23.6496949,2.00205246 23.8246078,2 24,2 Z" id="形状" fill="#21345A"></path>
    </g>
  </g>
</svg>